<svg xmlns="http://www.w3.org/2000/svg" xml:space="preserve" viewBox="0 0 142.73 98.81">
  <path fill="#f7788a" d="M122.42 63.1c-.31-.31-2.33-.64-3.99-.65-1.42 0-1.9-.06-1.9-.24 0-.13.46-.94 1.02-1.8a36.04 36.04 0 0 0 3.62-7.34l.52-1.64 1.47-.32a14.45 14.45 0 0 0 6.53-3.2c1.46-1.23 1.64-.81.88 2.02a28.13 28.13 0 0 1-6.5 11.95c-.96 1.01-1.47 1.4-1.65 1.22zm-19.24-22.51c-.3-4.62-1.8-13.67-2.44-14.72-.13-.2-.56.01-1.99.96a66.9 66.9 0 0 1-4.52 2.67c-3.55 1.9-5.66 3.21-7.36 4.58a9.81 9.81 0 0 1-1.44 1.05l-.8-1.78-.77-1.71 1.35-1.91c3.74-5.28 7.3-8.55 13.94-12.81 3.29-2.11 5.27-3.23 5.44-3.06.06.06-.03.86-.2 1.76-.53 2.78-.38 4.37.99 10.14.83 3.51 1 4.98 1.01 8.37 0 3.17-.35 6.07-.91 7.43-.27.63-1.7 2.51-1.93 2.51-.08 0-.25-1.57-.37-3.48zm-15.9 2.52c-.05-.24-.13-.93-.19-1.55-.05-.6-.15-1.38-.22-1.71-.11-.57-.03-.7 1.34-2.06.8-.8 2.3-2 3.32-2.67 1.85-1.2 6.4-3.68 6.78-3.68.33 0 .24 2.45-.12 2.97-1.29 1.9-3.46 3.84-7.3 6.51-1.08.75-2.3 1.64-2.74 2-.78.63-.78.63-.87.2z"/>
  <path fill="#fdb02c" d="M41.2 98.7c-2.94-.47-6.81-1.86-8.86-3.18-1.45-.94-3.71-3.14-3.35-3.27.14-.06 1.14.01 2.23.15 2.99.38 8.83.3 12.04-.18 9.95-1.44 19-5.36 22.78-9.86.56-.66.68-.67 2.82-.24.73.15.75.16.69.88-.1 1.1-1.06 3.44-2.08 5-4.25 6.51-12.56 10.57-22.11 10.8-1.69.04-3.56 0-4.16-.1zM69.38 68c-2.85-4.49-3.94-6.77-4.63-9.74-.53-2.23-.49-7.27.07-9.19.63-2.2 1.7-4.5 3.89-8.33 2.48-4.37 2.56-4.47 2.91-4.1.45.47 4.1 6.69 4.83 8.21 2.13 4.5 2.78 8.42 2.07 12.5a18.7 18.7 0 0 1-1.96 5.77c-1.05 2.12-4.61 7.93-4.94 8.03-.11.04-1.12-1.38-2.24-3.14zM19.4 62.52a34.58 34.58 0 0 1-5.15-7.66c-.9-1.95-1.99-5.3-2.11-6.48l-.1-1 .44.24c.24.13.9.58 1.47 1 .56.43 1.31.96 1.67 1.18.81.49 3.88 1.53 4.5 1.53.63 0 .77.2 1.37 2.04a42.94 42.94 0 0 0 3.56 7.32c.45.7.77 1.31.71 1.37-.05.05-1.04.16-2.2.23-1.23.08-2.38.26-2.8.44-.9.38-.8.4-1.36-.2zm18.83-19.7c-1.36-1.37-1.47-1.62-1.9-4.22-.64-3.91-.19-8.49 1.49-15.14.8-3.16.9-4.56.54-7.08a11.25 11.25 0 0 1-.2-2.34c.07-.07.36-.02.64.1.91.42 6.4 3.96 8.69 5.62 4.4 3.18 5.27 4.07 9.12 9.22l2.12 2.83-.67 1.63c-.37.9-.7 1.66-.74 1.7-.04.04-.53-.35-1.1-.87a31.23 31.23 0 0 0-5.76-3.84c-3.66-1.95-4.14-2.23-5.64-3.24-.86-.57-1.7-1.15-1.9-1.29-.3-.22-.37-.18-.63.45-.91 2.19-1.74 7.29-2.23 13.81a27.24 27.24 0 0 1-.42 3.76c-.09.09-.72-.4-1.4-1.1z"/>
  <path fill="#fa8c4c" d="M29.84 88.56A39.08 39.08 0 0 1 4.07 73.43c-2.03-2.72-4.5-7.8-4-8.28.05-.06.84.22 1.75.62 4.87 2.2 8.4 2.4 16.13.9 4.24-.82 6.03-1.04 8.36-1.04h1.86l.42.64a47.4 47.4 0 0 0 5.45 6.05c6.11 5.48 13 8.86 21.4 10.5 1.34.26 2.48.5 2.52.55.04.04-.63.42-1.48.85-4.09 2.06-11.09 3.87-17.16 4.44-2.75.26-7.2.21-9.48-.1zm28.13-9.47a36.38 36.38 0 0 1-10.56-2.77C38.17 72.5 30.84 64.9 25.57 53.66a75.43 75.43 0 0 1-5.11-14.42c-.91-3.64-1.03-4.27-.77-4.27s1.46.72 4.4 2.63a79.7 79.7 0 0 0 4.36 2.66 46.65 46.65 0 0 1 7.23 4.86 44.8 44.8 0 0 1 2.72 2.8c1.46 1.64 1.55 1.8 1.67 2.8a35.66 35.66 0 0 0 10.67 21.65 32.9 32.9 0 0 0 7.81 5.78c2.56 1.34 2.54 1.37-.58.94zm9.04-1.84C56.06 74.43 48.05 66.4 45.18 55.4A30.7 30.7 0 0 1 44 46.02c0-3.1.28-7.07.52-7.3.05-.05.53.32 1.08.82.55.5 1.9 1.62 3.03 2.49 5.11 3.97 7.72 6.39 10.1 9.34l1.16 1.45.15 2.47c.32 5.03 1.92 9.07 6 15.15 2.35 3.5 4.23 7.48 3.52 7.44-.08 0-1.22-.29-2.55-.63zm15.05-29.78c-.5-2.02-3.14-7.09-6.58-12.68a92.26 92.26 0 0 1-2.9-5.05 10.85 10.85 0 0 0-1.19-2.02c-.08 0-.73 1.15-1.45 2.56a142 142 0 0 1-3.82 6.76c-3.3 5.5-3.9 6.63-4.59 8.52l-.68 1.86c-.07.2-.32.03-.94-.65l-.83-.93.1-1.49a29.1 29.1 0 0 1 3.1-10.31 51.38 51.38 0 0 1 4.6-7.04c.9-1.19 2.28-3.1 3.07-4.26l1.45-2.1 1.49 2.2c.82 1.2 2.22 3.15 3.11 4.32.9 1.18 2.1 2.85 2.66 3.72 2.8 4.32 4.76 9.67 5.1 13.94.1 1.37.09 1.4-.53 2.21-.77 1.02-1 1.1-1.18.44zm-27.45-5.6c-.34-.28-1.78-1.42-3.21-2.53-2.86-2.2-4.13-3.36-5.5-4.99-.8-.93-.91-1.18-.91-1.9v-.83l2.38 1.2c3.09 1.54 5.94 3.46 7.52 5.08l1.27 1.28-.33 1.61a5.5 5.5 0 0 1-.47 1.61c-.08 0-.41-.24-.75-.52zm5.47-14.29a28.92 28.92 0 0 0-1.8-2.32c-1.22-1.41-1.24-1.46-1.11-2.23.53-3.13 2.85-7.53 6.3-11.94 4-5.08 5.64-7.4 7.54-10.56l.31-.53.99 1.64c1.24 2.07 4.21 6.23 6.36 8.9 3.38 4.18 5.6 8.03 6.57 11.43l.47 1.64-1.43 1.64c-.79.9-1.65 1.95-1.92 2.33-.27.38-.54.7-.6.7a5.4 5.4 0 0 1-.82-1.07c-.4-.59-1.58-2.22-2.64-3.63a49.12 49.12 0 0 1-5.68-9.03c-.7-1.47-1.34-2.6-1.43-2.5-.08.08-.5.96-.92 1.95a39.3 39.3 0 0 1-3.8 6.7c-1.97 2.82-5.6 7.74-5.7 7.75a3.5 3.5 0 0 1-.69-.87z"/>
  <path fill="#35c3c2" d="M93.86 98.7a31.66 31.66 0 0 1-9.39-2.74c-3.28-1.65-6.77-4.62-8.53-7.27-1.08-1.62-2.51-4.9-2.57-5.9l-.05-.69 1.3-.23c1.17-.2 1.33-.19 1.49.08.46.76 2.97 3.04 4.39 3.97 4.59 3.04 11.85 5.47 19.06 6.39 3 .38 9.27.42 12 .08 1.1-.13 2.05-.2 2.1-.14.18.17-1.76 1.94-3.1 2.84a26.33 26.33 0 0 1-8.56 3.34c-1.82.35-6.42.5-8.14.27zm7.9-9.97a66.94 66.94 0 0 1-12-2.6c-1.97-.65-6.61-2.8-6.43-2.97.05-.06 1.2-.3 2.57-.55a46.75 46.75 0 0 0 21.24-9.55 55.16 55.16 0 0 0 6.46-6.3l.95-1.18 2.7.1c2 .07 3.65.27 6.29.76 4.69.87 6.18 1.05 8.87 1.04 2.97 0 5-.43 7.72-1.64 2.12-.95 2.6-1.1 2.6-.8 0 .38-.94 2.85-1.55 4.04a39.05 39.05 0 0 1-4.67 6.8c-5.53 6.31-14.04 10.8-23.6 12.44-1.69.29-3.24.4-6.32.44-2.25.03-4.43.02-4.84-.03zM81.58 79.3c0-.05.6-.37 1.35-.71 4.63-2.15 9.76-6.36 13.04-10.71 3.88-5.15 6.43-11.56 6.92-17.4l.12-1.44 2.06-2.08c2.56-2.58 3.45-3.23 8.56-6.27 2.25-1.33 4.68-2.82 5.4-3.3 3.02-2.03 4.37-2.73 4.36-2.27 0 .39-.65 2.8-1.57 5.84-3.35 11.18-5.93 16.55-11.02 22.94A40.28 40.28 0 0 1 84.29 79c-.92.12-1.9.25-2.19.3-.28.04-.5.04-.5 0zm-8.54-1.83c0-.53 1.59-3.48 3.31-6.14 3.26-5.03 4.2-6.7 5.1-9.13a29.1 29.1 0 0 0 1.61-6.75l.2-1.91 1.14-1.52c2.1-2.8 4.8-5.19 10.5-9.3a26.8 26.8 0 0 0 2.92-2.53 7.2 7.2 0 0 1 1.5-1.34c.03.07.16 1.7.28 3.6a34.8 34.8 0 0 1-.66 10.24 32.94 32.94 0 0 1-13 19.92 29.42 29.42 0 0 1-10.3 4.64c-2.07.53-2.6.57-2.6.22z"/>
</svg>