<svg viewBox="0 0 110.17 116.01" xml:space="preserve" xmlns="http://www.w3.org/2000/svg">
  <g transform="translate(-56.3 -83.59)">
    <path d="m63.49 148.79-2.76-5.92 2.71-5.6 4.9-.95z" fill="#fff"/>
    <circle cx="76.93" cy="142.2" r="9.75" transform="translate(10 3.76)" fill="#fff"/>
    <path d="M147.88 199.5c-6.7-.71-13.5-5.4-17.75-12.25a49.65 49.65 0 0 1-3.53-7.15 60.04 60.04 0 0 1-3.07-12.52 7.4 7.4 0 0 0-.35-1.78c-.07-.04-.46.3-.85.78a62.52 62.52 0 0 1-6.3 5.7c-.69.51-1.27 1-1.3 1.07-.03.07.44.43 1.04.8 1.35.81 3.16 2.62 3.92 3.9 2.86 4.85 1.96 11.32-1.92 13.78-1.64 1.04-4.24 1.16-6.71.33l-1.35-.45c-.22 0 .6 1.02 1.89 2.35.85.87 1.54 1.66 1.54 1.76 0 .3-.58.7-1.18.8-2.53.48-7.28-1.9-10.04-5.02a30.49 30.49 0 0 1-5.67-9.76l-.58-1.65-1.58-.05c-1.3-.04-1.6 0-1.69.22-.2.51 1.4 4.33 2.75 6.55.61 1.02.68 1.23.51 1.6-.53 1.18-2.6.52-5.37-1.71a17.22 17.22 0 0 1-4.19-5.4l-.9-1.78-1.67-.47a44.43 44.43 0 0 1-9.99-4.24c-3.62-2.22-7.36-5.78-9.32-8.86l-.62-.97-1.1-.1c-2.11-.2-3.47-.95-4.1-2.26a3.06 3.06 0 0 1 .04-2.92l.4-.76-.74-.83a6.19 6.19 0 0 1-1.8-4.1c0-2.15 1.08-3.03 3.7-3.03h1.53l.44-1.06.43-1.05-.8-1.16a8.58 8.58 0 0 1-1.43-6.47 7.85 7.85 0 0 1 2.12-4.05 6.95 6.95 0 0 1 4.1-2.12l1.19-.19.62-1.14c3.28-5.97 6.44-9.59 11.45-13.07.78-.55 1.58-1.2 1.77-1.44.19-.24.54-1.1.79-1.93 2-6.7 5.74-12.8 11.17-18.23 7.1-7.07 15.14-11.84 23.85-14.14a34.93 34.93 0 0 1 9.51-1.4c3.64-.1 6.26.15 7.64.72.77.33.76.9-.01 1.3-5.83 2.94-8.67 5.38-10.48 9-.96 1.91-1.27 3.41-1.27 6.26 0 3.85.75 6.62 2.4 8.82a6.43 6.43 0 0 0 3 2.38c.54.21 1 .5 1.03.65.06.3-.99 1.1-2.48 1.9a8.27 8.27 0 0 0-3.35 3.36c-.42.9-.47 1.2-.47 2.9s.06 2.02.46 2.87a5.52 5.52 0 0 0 2.48 2.72c.7.37 1.21.47 2.61.55 1.7.1 1.73.11 1.78.54.08.62-.92 1.72-2.17 2.38a8.98 8.98 0 0 1-4.23 1.08c-.64 0-1.2.07-1.26.15-.05.08.14.84.43 1.7a59.2 59.2 0 0 1 2.07 8.82c.53 3.2.76 3.82 1.76 4.66.72.6 1.67.6 2.4-.02.3-.25 1.4-1.67 2.46-3.16a48.38 48.38 0 0 1 6.03-7.26c5.08-5.08 10.35-8.1 16.17-9.25 2.28-.45 5.7-.48 7.65-.06 2.3.49 4.75 1.8 5.04 2.7.16.5-.17.8-2.41 2.31-5.02 3.37-10.76 9.25-14.24 14.57-2.43 3.73-3.7 6.52-4.5 9.84a28.97 28.97 0 0 0-.73 8.5c.3 11.12 5.32 23.91 10.82 27.55 1.5 1 2.54 1.34 4.05 1.34.88 0 1.24.06 1.3.24.32.81-2.32 3.55-4.33 4.5a16.58 16.58 0 0 1-8.5 1.32zm-27.83-37.83a4.59 4.59 0 0 0-.93-.17c-.59-.06-.73-.05-.44.05.44.15 1.51.24 1.37.12zm-10.55-1.71c4.14-.86 5.17-1.28 2-.83-1.5.21-6.7 1.34-7.28 1.57-.99.4 1.26.09 5.28-.74zm-45.4-5.6a8.47 8.47 0 0 0-1.58-.93c-1.4-.7-2.68-1.02-3.23-.8-.21.08.19.29 1.34.68.9.3 1.96.73 2.34.93.84.45 1.45.52 1.13.13zm24.71-1.22c2.8-.77 5.18-3.79 5.54-7.01.3-2.69-1.38-5.92-3.85-7.36a7.75 7.75 0 0 0-6.94-.22c-1.07.5-2.78 2.12-3.5 3.33-3.1 5.15 1.13 12.08 7.08 11.57.43-.03 1.18-.17 1.67-.3zm-3.44-4.82c-2.12-.76-3.33-3.36-2.5-5.35a3.83 3.83 0 0 1 6.62-.84c1.68 2.3.8 5.24-1.84 6.18-.88.3-1.43.31-2.28 0zm.85-4.81c.27-.25.4-.58.4-.96 0-.5-.08-.63-.53-.81-.7-.3-1.3-.17-1.72.37-.42.52-.44.88-.08 1.39.37.52 1.38.53 1.93 0zm-20.93 6c3.86-11.15 5.98-15.42 10-20.17a39.04 39.04 0 0 1 6.8-6.16c1.73-1.29 2.09-1.63 2-1.91-.16-.59-.11-.84.54-2.62a56.97 56.97 0 0 1 4.52-9c5.35-8.03 15.23-16.37 23.73-20.02 5.29-2.27 10.67-3.57 15.11-3.65.65 0 1.41-.07 1.7-.14l.52-.13-.5-.14c-.28-.07-1.47-.09-2.64-.03-11.4.58-22.9 5.96-31.78 14.85-5.72 5.73-9.62 12.14-11.3 18.59-.2.78-.46 1.53-.56 1.67-.1.13-.61.52-1.14.85-7.75 4.93-12.68 12.12-16.36 23.86l-1.47 4.63c-.78 2.42-.97 3.58-.51 3.12.08-.08.68-1.7 1.34-3.6zm-1.28-2.9c.08-.42-.01-.8-.35-1.5a5.12 5.12 0 0 1-.28-3.58 5.01 5.01 0 0 1 2.43-2.68c.8-.36 1.23-.88 1.23-1.47 0-.7-2.22.1-3.34 1.2a7.47 7.47 0 0 0-1.12 1.55c-.43.8-.48 1.07-.48 2.64 0 1.66.03 1.8.66 3.07.71 1.44 1.08 1.67 1.25.77zm69.66-2.81a54.36 54.36 0 0 1 8.58-8.74 33.07 33.07 0 0 1 13.6-6.24c1.04-.2 1.93-.4 1.97-.45.18-.18-2.1-.07-3.48.17-6.77 1.19-13.88 5.97-19.32 13.02-2.03 2.62-3.34 4.47-3.34 4.69.01.17 0 .18 2-2.45zm-67.6-3.07c.38-.53.35-.96-.07-1.18-.28-.15-.43-.1-.78.25-.48.47-.54.79-.22 1.1.32.33.78.25 1.08-.17zm13.47-2.16a12.15 12.15 0 0 1 4.14-3.75c1.4-.69 3.8-1.2 5.24-1.13 1.15.05 1.1-.22-.13-.6-1.54-.48-4.01-.35-5.2.26-1.92 1-3.29 2.4-4.43 4.57-.84 1.6-.58 2.04.38.65zm41.48-5.35c-.9-3.17-3.4-7.36-5.97-10.02-4.27-4.43-9.1-6.52-15.06-6.52-1.82 0-5.36.43-5.62.68a27 27 0 0 0 3.9.24c4.34.1 5.48.27 8.08 1.14a19.9 19.9 0 0 1 8.52 5.5 32.25 32.25 0 0 1 6 9.55c.27.69.52 1.19.55 1.11.02-.07-.16-.83-.4-1.68z" fill="#41b6e4"/>
    <path d="M146.64 199.33a25.57 25.57 0 0 1-8.82-3.83c-7.26-5.02-12.53-15.19-14.2-27.44a13.8 13.8 0 0 0-.4-2.2c-.07-.08-.87.63-1.78 1.55a53.73 53.73 0 0 1-5.92 5.22c-.45.3-.82.63-.82.71 0 .09.55.52 1.23.96a11.63 11.63 0 0 1 5.33 8.63c.15 1.5 0 3.54-.34 4.6a7.8 7.8 0 0 1-3.93 4.67c-.87.4-1.2.46-2.73.45-1.41 0-1.97-.1-3.08-.47-.74-.26-1.38-.47-1.43-.47-.29 0 .13.55 1.65 2.15.96 1 1.74 1.9 1.74 2 0 .7-2.4.95-4.17.43-5.13-1.53-10.12-7.2-12.7-14.45l-.59-1.65-1.67-.05-1.67-.05v.45c0 .76 1.8 4.76 3.16 7.06l.4.66-.5.43c-.6.53-1 .53-2.14 0-2.96-1.38-5.45-3.96-7.24-7.5l-.8-1.59-.99-.28c-6.51-1.83-11.15-4.22-15.23-7.84a31.4 31.4 0 0 1-4.8-5.48l-.59-.93-1.22-.12c-3.37-.33-5.22-2.76-3.93-5.18l.43-.8-.77-.8a5.99 5.99 0 0 1-1.79-3.97c-.06-1.48.27-2.13 1.39-2.72.61-.33 1.02-.4 2.3-.4h1.54l.42-1.04c.46-1.14.5-.95-.5-2.45-1.06-1.61-1.28-2.42-1.28-4.75 0-2.1.01-2.2.56-3.32a7.58 7.58 0 0 1 5.65-4.34l1.2-.22.77-1.39c3.37-6.04 6.45-9.48 11.67-13.05a6.8 6.8 0 0 0 1.51-1.29c.11-.21.54-1.44.96-2.73 2.3-7.04 6.24-13 12.5-18.87 8.3-7.79 18.56-12.7 29.03-13.9 3.4-.38 9.17.02 10.53.74.69.36.48.8-.66 1.37-6.05 3.05-9.13 6-10.63 10.2-.92 2.56-1 6.52-.2 9.63.78 3 2.9 5.82 4.87 6.44.54.17 1.03.42 1.08.56.13.32-.57.89-2.17 1.78-1.8 1-2.87 2.03-3.55 3.4-.53 1.1-.57 1.26-.57 3.07a5.67 5.67 0 0 0 3.5 5.88 8.1 8.1 0 0 0 2.26.27c1.2 0 1.47.06 1.56.3.31.82-1.65 2.59-3.59 3.23-.52.18-1.67.36-2.56.42-.88.05-1.6.14-1.6.2a67.48 67.48 0 0 1 2.58 10.53c.43 2.59.57 3.1 1.04 3.83.6.93 1.11 1.25 2.02 1.25.85 0 1.63-.77 3.47-3.42a45.81 45.81 0 0 1 5.52-6.79c4.48-4.6 8.66-7.38 13.6-9.03 2.62-.88 4.6-1.2 7.22-1.2 3.4 0 5.74.58 7.58 1.9 1.05.75 1.32 1.24.96 1.68-.13.16-.86.69-1.62 1.18-2.63 1.71-4.69 3.44-7.9 6.65-4.28 4.28-7.15 8.08-9.34 12.34a30.09 30.09 0 0 0-2.94 15.56c.9 12.13 6.2 24.21 11.85 27.05 1.05.53 1.4.62 2.72.67 1 .04 1.54.13 1.6.27.15.4-.48 1.4-1.61 2.54a12.08 12.08 0 0 1-5.12 2.87c-1.22.33-5.9.48-7.31.23zm6.2-2.32c1.35-.29 3.94-1.32 3.93-1.57 0-.1-.48-.34-1.05-.55-1.88-.68-3.5-2.04-5.18-4.34-.75-1.02-1.16-1.44-1.5-1.5l-1.16-.2c-1.98-.33-5.27-1.9-7.56-3.63a24.32 24.32 0 0 1-4.31-4.08c-.87-1-1.21-1.29-1.51-1.24-.5.07-1.45 1-1.33 1.3.04.12-.18.57-.5 1-.32.42-.73 1.01-.91 1.32-.18.31-.47.57-.64.57-.17 0-.3.04-.3.1 0 .24.67 1.35 1.78 2.93 3.57 5.07 8.77 8.72 14.07 9.88 1.39.3 4.75.31 6.17.01zm-43.69-2.78c0-.05-.46-.73-1.02-1.52a42.54 42.54 0 0 1-2.26-3.76 37.11 37.11 0 0 0-1.84-3.14 4.5 4.5 0 0 1-.6-.98c0-.1-.18-.37-.41-.62-.23-.25-.37-.5-.32-.54.05-.06 0-.1-.12-.1-.11 0-.16-.09-.1-.19.07-.1-.04-.22-.24-.28-.37-.1-.43-.23-.38-.78a1.4 1.4 0 0 0-.2-.7c-.12-.21-.3-.66-.4-1-.1-.33-.29-.58-.4-.56-.1.02-.2-.05-.2-.15 0-.2-1.18-.12-2.2.13-.49.12-.45.33.49 2.75.83 2.16 2.23 4.47 2.78 4.6.25.05.42.24.46.47.04.31.13.37.46.29.33-.09.4-.04.36.21-.03.18.13.57.37.88.23.31.37.64.31.74-.05.1.16.32.47.52.31.19.5.35.4.35-.38 0 1.67 1.82 2.94 2.6 1.3.81 1.65.98 1.65.78zm6.88-4.27a7.22 7.22 0 0 0 2.53-2.33c.14-.28.34-.8.43-1.14l.17-.63-2.1-.09c-2.82-.12-4.78-.68-8.08-2.3a22.18 22.18 0 0 1-5.42-3.5c-.71-.7-1.04-.93-1.18-.8-.23.24.3 1.35.86 1.87.2.18.37.43.37.56 0 .13.12.24.27.24.14 0 .22.07.16.16-.05.09.07.25.27.36.2.11.32.3.27.44-.05.14-.03.25.05.25.09 0 .12.15.07.34-.05.2 0 .35.1.35s.2.12.2.26c0 .45 1.65 2.55 2.8 3.58 1.84 1.62 3.41 2.48 5.16 2.8.78.16 2.33-.06 3.07-.42zm31.22-4.96a59.97 59.97 0 0 1-2.05-4.93l-.9-2.54-1.02-.62a34.26 34.26 0 0 1-3.99-3.07c-.05-.09-.24-.1-.42-.04-.2.08-.28.06-.2-.07.14-.23-.78-.46-1.25-.3-.24.07-.35 0-.42-.27-.06-.21-.2-.34-.33-.29-.24.09-.24.19-.05.69.09.21.04.3-.16.3-.16 0-.28.15-.28.35 0 .2-.11.35-.26.35-.14 0-.25.09-.25.2 0 .1-.15.32-.32.47-.34.3-.72.93-.72 1.2 0 .16 2 2.9 2.67 3.67 2.93 3.33 6.12 5.67 9.36 6.87 1.9.7 1.9.72.6-1.97zm-27.97-1.41c-.32-1.84-1.03-3.74-1.74-4.67-.02-.04-.19.02-.36.12-.3.17-.3.19-.01.19.16 0 .3.08.3.18 0 .1-.06.16-.13.15-.32-.05-.58.03-.5.16.05.07-.07.13-.25.13a.48.48 0 0 1-.43-.3c-.08-.24-.27-.31-.83-.3-.4 0-.62.05-.5.1s.21.16.21.25c0 .1-.12.1-.3.01a4.85 4.85 0 0 0-1.34-.18c-1.5-.05-3.48-.32-6.07-.82-1.78-.35-2.35-.4-2.74-.25l-.49.18.49.41c1.28 1.07 5.65 3.5 5.95 3.31.1-.05.17-.02.17.07 0 .14.31.31.87.47.05 0 .37.15.73.3.35.17.78.32.95.35.17.03.75.2 1.28.35.98.3 3.97.62 4.54.49.25-.06.28-.19.2-.7zm-30.4-1.81-.28-.87c-.2-.6-.37-.8-.62-.8-.32 0-.31.04.13.86.26.48.54.87.62.87.08 0 .15-.03.15-.06zm27.72-4.27c0-.1-.16-.26-.36-.36-.3-.16-.42-.13-.7.16l-.34.37h.7c.39 0 .7-.08.7-.17zm-7.7-.53c0-.23-.08-.32-.24-.26-.13.05-.44.14-.69.2-.41.1-.42.13-.11.25.64.25 1.04.18 1.04-.2zm34.85-1.97c-.5-1.32-1.33-6.4-1.6-9.81l-.1-1.47-1.3-.96-1.76-1.3a12.88 12.88 0 0 0-1.84-1.12c-.03 0-.1.6-.17 1.34a44 44 0 0 1-.56 3.53l-.45 2.2.75 1.01c1.4 1.9 6.42 6.82 6.97 6.82.09 0 .12-.1.07-.24zm-23.7-13.34a4.59 4.59 0 0 0-.93-.17c-.59-.06-.73-.05-.44.05.44.15 1.51.24 1.37.12zm22.36-2c.24-2.43.86-5.29 1.46-6.79l.44-1.07-.9.1c-.77.1-2.87.57-5.17 1.17l-.63.16-.2 1.78-.28 2.58-.09.81.97.58c.54.32 1.64 1.06 2.46 1.66.81.6 1.53 1.08 1.6 1.08.07 0 .22-.92.34-2.06zm-32.91.29c4.14-.86 5.17-1.28 2-.83-1.5.21-6.7 1.34-7.28 1.57-.99.4 1.26.09 5.28-.74zm17.05-2.88c.16-.26.62-4.4.62-5.57 0-1.78-.15-2.38-.6-2.5a3.92 3.92 0 0 1-.65-.2c-.21-.07-.27.39-.36 2.82a36.3 36.3 0 0 1-.38 4.21l-.26 1.34c0 .13 1.55.03 1.63-.1zm-20-1.16a32.4 32.4 0 0 0 3.6-1.03c.72-.71.95-13.89.32-18.02-.65-4.31-1.94-8.93-2.6-9.37-.55-.36-3.08-.64-4.52-.51-.67.06-1.8.26-2.52.45-1.45.38-4.94 2.01-5.41 2.53-.29.32-.26.36.72 1.05a16.2 16.2 0 0 1 4.47 4.68 28.54 28.54 0 0 1 4.4 11.26c.31 1.77.4 2.9.4 5.72.01 3.03.05 3.5.28 3.43l.86-.19zm29.26-.17c.35-.3.58-.71.72-1.3.12-.49.18-.91.15-.95a24 24 0 0 0-3.82 1.33c-.45.2-.78.44-.72.53.05.09.13.12.18.08.04-.05.6.1 1.24.32 1.48.52 1.63.52 2.25 0zm-17.04-.32 1.39-.4.3-1.11a30.5 30.5 0 0 0 1.07-8.65l.01-3.38-.68-1.53c-.71-1.62-1.9-3.58-2.15-3.58-.09 0-.2 2.57-.25 5.85-.1 5.9-.27 8.01-.96 11.52a7.06 7.06 0 0 0-.22 1.69c.06 0 .73-.19 1.49-.41zm-54.67-1.06a8.47 8.47 0 0 0-1.58-.94c-1.4-.7-2.68-1.02-3.23-.8-.21.08.19.29 1.34.68.9.3 1.96.73 2.34.93.84.45 1.45.52 1.13.13zm23.93-1.03a8.03 8.03 0 0 0 6.25-6.66 7.83 7.83 0 0 0-4.26-8.17 7.72 7.72 0 0 0-5.44-.37 8.4 8.4 0 0 0-5.01 4.63c-.44.93-.49 1.21-.49 2.93 0 1.85.03 1.95.65 3.26a7.73 7.73 0 0 0 5.33 4.4c1.27.27 1.62.27 2.97-.02zm-2.4-4.94a4.25 4.25 0 0 1-2.79-2.77 3.82 3.82 0 0 1 .95-3.94c2.19-2.2 5.89-.9 6.49 2.28.48 2.56-2.14 5.06-4.65 4.43zm.6-4.9c.47-.44.53-1.36.12-1.7-.72-.6-2.33.06-2.33.95 0 1.07 1.37 1.54 2.2.76zm48.66 9.03a52.5 52.5 0 0 1 8.57-2.07l1.39-.2 1.15-2.1a43.73 43.73 0 0 1 3.4-5.37c.29-.36.46-.7.4-.77-.24-.24-4.24 1.3-7.02 2.69-1.56.78-3.47 2-5.02 3.22l-1.61 1.24c-.26.19-1.33 1.04-2.38 1.9-1.64 1.33-1.92 1.62-1.92 2.05 0 .42.06.48.3.37l2.74-.96zm-69.6-3.02c3.86-11.15 5.98-15.42 10-20.17a40.06 40.06 0 0 1 6.78-6.16l2.06-1.56v-.78c0-1.53 2.44-7.06 4.66-10.56 2.9-4.56 7.34-9.32 12.83-13.74a64.3 64.3 0 0 1 8.72-5.67c5.9-3 12.64-4.83 18.04-4.88a6.8 6.8 0 0 0 1.65-.15c.73-.3-.28-.4-2.92-.3-7.78.3-16.27 3.2-23.47 7.98-7.53 5-13.85 11.95-17.2 18.86-1.02 2.13-2.76 6.98-2.76 7.72 0 .27-.25.57-.81.96-4.2 2.91-5.83 4.3-7.99 6.8a45.06 45.06 0 0 0-2.85 3.72c-1.51 2.3-3.7 6.7-4.7 9.53-1.52 4.3-3.76 11.57-3.65 11.86.07.17.18.23.27.14.08-.08.68-1.7 1.34-3.6zm67.33.24c-.05-.08-.02-.15.07-.15.1 0 .13-.15.08-.34-.1-.41-.12-.41-.86-.14-.49.17-.55.26-.47.65.25 1.14.23 1.12.77.6.27-.26.46-.54.4-.62zm-.77-.24c0-.15.08-.23.18-.17.1.06.13.19.08.27-.15.24-.26.2-.26-.1zm2.83-1.12c.68-.58 3.86-2.94 4.9-3.65 2.31-1.56 6.66-3.42 10.33-4.4l1.52-.41 2.92-2.96a47.6 47.6 0 0 0 2.8-2.96c-.37 0-4.71 1.28-5.77 1.7a41.8 41.8 0 0 0-5.29 2.62c-.17.15-.41.3-.55.33a.7.7 0 0 0-.4.3c-.07.13-.24.24-.36.24-.13 0-.33.11-.44.25-.1.13-.4.3-.64.35-.79.2-3.9 2.65-6.82 5.37l-2.3 2.14c-.64.6-1.17 1.12-1.17 1.17 0 .16 1.06.08 1.27-.1zm13.38-7.97c-.06-.1-.03-.18.07-.18s.19.08.19.18c0 .1-.04.17-.08.17s-.13-.08-.18-.17zm-15.5 6.78c1.36-1.02 2.24-2 2.24-2.46 0-.2.11-.64.25-1 .14-.35.16-.49.05-.3-.12.18-.8 1.03-1.51 1.89-1.44 1.72-2.25 2.42-2.39 2.05-.06-.17-.15-.16-.4.07-.46.42-.42.6.16.6.32 0 .88-.3 1.6-.85zM64 146.9c.19-.48.11-.88-.33-1.83a4.6 4.6 0 0 1 2.27-6.23c.67-.3 1.11-.88 1.11-1.46 0-.43-.94-.3-2.1.31-2.96 1.53-3.84 5.5-1.94 8.75.45.77.8.93.99.46zm69.32-2.48c1.73-2.26 2.42-2.96 2.89-2.96.1 0 .16.1.11.22-.05.13.04.22.23.22.17 0 .28-.05.24-.11-.1-.16.43-.36.63-.24.08.05.1.2.05.35-.11.28.2.35.37.08.06-.1.23-.18.37-.18.15 0 .67-.34 1.16-.75 5.29-4.49 12.2-7.69 18.22-8.43 1.5-.18 1.62-.23 2.78-1.1.67-.5 1.59-1.14 2.05-1.4.49-.29.77-.56.68-.65-.09-.08-1.09-.4-2.22-.69-3.35-.86-5.87-.7-9.9.63-6.04 2.01-11.84 6.57-16.82 13.21-1.84 2.45-2.99 4.21-2.75 4.21.04 0 .9-1.08 1.91-2.41zm-67.14-3.83c.4-.97-.23-1.54-.96-.86-.45.43-.56 1.12-.2 1.27.57.23.96.1 1.16-.4zm13.37-2.02a12.15 12.15 0 0 1 4.14-3.75c1.4-.69 3.8-1.2 5.24-1.13.45.02.83-.03.83-.12.04-.35-1.83-.79-3.36-.8-1.35 0-1.66.07-2.67.54a8.54 8.54 0 0 0-3.47 2.85c-.77 1.04-1.6 2.59-1.6 3 0 .43.34.2.89-.6zm41.48-5.35c-.58-2-1.66-4.21-3.17-6.5a21.71 21.71 0 0 0-4.23-4.95 19.5 19.5 0 0 0-10.69-4.94c-2.44-.32-7.98.02-8.56.54-.08.07 1.67.17 3.9.23 4.34.1 5.48.27 8.08 1.14a19.9 19.9 0 0 1 8.52 5.5 32.25 32.25 0 0 1 6 9.55c.27.69.52 1.19.55 1.11.02-.07-.16-.83-.4-1.68zm-33.8-15.52c.89-1.76 1.33-2.94 1.1-2.94-.12 0-.15-.2-.09-.52.06-.29.04-.52-.05-.52-.22 0-1.4 2.4-1.4 2.84a6 6 0 0 1-.6 1.55c-.33.65-.6 1.21-.6 1.26 0 .04.23-.04.51-.19.36-.18.71-.65 1.13-1.48zm2.86-.6c1.37-.57 4.13-1.4 5.2-1.56 1.21-.18 1.27-.21 1.82-1.14a88.81 88.81 0 0 1 4.5-6.66 46.45 46.45 0 0 1 9.48-8.9 34.49 34.49 0 0 1 9.83-4.32c.29-.09.65-.56 1.22-1.58 1.01-1.82 3.3-4.73 4.14-5.25l.63-.4-.58-.05c-.66-.07-3.17.33-2.84.44.12.04.22.19.22.32 0 .27-.81.29-1.17.03-.11-.1-.54-.1-.95-.04-.72.12-4.14 1.16-5.67 1.73-3.54 1.3-10.48 5.1-10.36 5.67.02.11-.1.2-.25.21-.16 0-.51.25-.78.54-.27.3-.75.71-1.06.93-.31.21-.83.8-1.14 1.3a40.7 40.7 0 0 1-2.6 3.2 88.2 88.2 0 0 0-6.91 8.97c-2.55 3.8-4.58 7.33-4.09 7.12l1.36-.57zm30.94-2.26c1.94-.38 2.38-.53 3.32-1.14l1.09-.71-.78-.6c-1.4-1.06-2.38-2.6-3.3-5.17l-.56-1.56-.67.06c-2.24.21-5.66 1.64-8.4 3.52-1.76 1.2-4.4 3.6-4.19 3.79.08.07.84.22 1.7.33a52.9 52.9 0 0 1 6.93 1.54c1.4.47 2.23.46 4.86-.06zm-14-3.75a38.47 38.47 0 0 1 3.84-3.24 23.8 23.8 0 0 1 8.52-3.66l.96-.18-.01-2.9c0-1.77.07-3.26.2-3.83.13-.52.19-.98.14-1.03-.13-.13-3.63 1.14-5.22 1.9-4.74 2.24-10.2 7.16-14.34 12.92a12.2 12.2 0 0 0-1.15 1.77c0 .1.6.2 1.34.22l2.42.1 1.08.06zm-16.28-1.03c.22-.38.37-.74.32-.79-.1-.1-1.15 1.3-1.15 1.53 0 .32.46-.08.83-.74z" fill="#3db3e0"/>
    <path d="M146.64 199.33a25.57 25.57 0 0 1-8.82-3.83c-7.26-5.02-12.53-15.19-14.2-27.44a13.8 13.8 0 0 0-.4-2.2c-.07-.08-.87.63-1.78 1.55a53.73 53.73 0 0 1-5.92 5.22c-.45.3-.82.63-.82.71 0 .09.55.52 1.23.96a11.63 11.63 0 0 1 5.33 8.63c.15 1.5 0 3.54-.34 4.6a7.8 7.8 0 0 1-3.93 4.67c-.87.4-1.2.46-2.73.45-1.41 0-1.97-.1-3.08-.47-.74-.26-1.38-.47-1.43-.47-.29 0 .13.55 1.65 2.15.96 1 1.74 1.9 1.74 2 0 .7-2.4.95-4.17.43-5.13-1.53-10.12-7.2-12.7-14.45l-.59-1.65-1.67-.05-1.67-.05v.45c0 .76 1.8 4.76 3.16 7.06l.4.66-.5.43c-.6.53-1 .53-2.14 0-2.96-1.38-5.45-3.96-7.24-7.5l-.8-1.59-.99-.28c-6.51-1.83-11.15-4.22-15.23-7.84a31.4 31.4 0 0 1-4.8-5.48l-.59-.93-1.22-.12c-3.37-.33-5.22-2.76-3.93-5.18l.43-.8-.77-.8a5.99 5.99 0 0 1-1.79-3.97c-.06-1.48.27-2.13 1.39-2.72.61-.33 1.02-.4 2.3-.4h1.54l.42-1.04c.46-1.14.5-.95-.5-2.45-1.06-1.61-1.28-2.42-1.28-4.75 0-2.1.01-2.2.56-3.32a7.58 7.58 0 0 1 5.65-4.34l1.2-.22.77-1.39c3.37-6.04 6.45-9.48 11.67-13.05a6.8 6.8 0 0 0 1.51-1.29c.11-.21.54-1.44.96-2.73 2.3-7.04 6.24-13 12.5-18.87 8.3-7.79 18.56-12.7 29.03-13.9 3.4-.38 9.17.02 10.53.74.69.36.48.8-.66 1.37-6.05 3.05-9.13 6-10.63 10.2-.92 2.56-1 6.52-.2 9.63.78 3 2.9 5.82 4.87 6.44.54.17 1.03.42 1.08.56.13.32-.57.89-2.17 1.78-1.8 1-2.87 2.03-3.55 3.4-.53 1.1-.57 1.26-.57 3.07a5.67 5.67 0 0 0 3.5 5.88 8.1 8.1 0 0 0 2.26.27c1.2 0 1.47.06 1.56.3.31.82-1.65 2.59-3.59 3.23-.52.18-1.67.36-2.56.42-.88.05-1.6.14-1.6.2a67.48 67.48 0 0 1 2.58 10.53c.43 2.59.57 3.1 1.04 3.83.6.93 1.11 1.25 2.02 1.25.85 0 1.63-.77 3.47-3.42a45.81 45.81 0 0 1 5.52-6.79c4.48-4.6 8.66-7.38 13.6-9.03 2.62-.88 4.6-1.2 7.22-1.2 3.4 0 5.74.58 7.58 1.9 1.05.75 1.32 1.24.96 1.68-.13.16-.86.69-1.62 1.18-2.63 1.71-4.69 3.44-7.9 6.65-4.28 4.28-7.15 8.08-9.34 12.34a30.09 30.09 0 0 0-2.94 15.56c.9 12.13 6.2 24.21 11.85 27.05 1.05.53 1.4.62 2.72.67 1 .04 1.54.13 1.6.27.15.4-.48 1.4-1.61 2.54a12.08 12.08 0 0 1-5.12 2.87c-1.22.33-5.9.48-7.31.23zm6.67-2.26c1.37-.35 3.85-1.42 3.84-1.67 0-.07-.55-.36-1.21-.62-1.99-.8-4.42-3-6-5.42-.2-.3-.54-.44-1.42-.59-.64-.11-1.94-.5-2.9-.88-4.07-1.6-7.36-4.22-10.5-8.4-.68-.9-1.29-1.64-1.36-1.64-.07 0-.54.97-1.04 2.16a28.06 28.06 0 0 1-1.16 2.51c-.27.39-.57.47-.57.15 0-.4-.6-1.53-.8-1.53-.25 0-.42-.4-.42-.98 0-.23-.07-.38-.16-.32-.28.17-1.14-1.94-1.8-4.42a72.77 72.77 0 0 1-1.76-8.75c-.32-2.4-.39-2.68-.65-2.68-.43 0 .41 6.23 1.36 10.04 1.1 4.41 3.48 10 5.5 12.89 2.9 4.15 6 6.85 10.05 8.79 3.8 1.81 7.46 2.26 11 1.36zm-44.92-4.31a43.3 43.3 0 0 1-2.19-3.68 83 83 0 0 0-2.04-3.7 67.96 67.96 0 0 1-2.06-3.8c-.52-1.05-1-1.98-1.09-2.06-.13-.14-1.85.08-2.84.36-.41.11-.33.65.4 2.67 1.27 3.47 4.33 7.77 7 9.84 1.06.81 3.55 2.27 3.88 2.27.12 0-.35-.86-1.06-1.9zm7.96-2.65a5.82 5.82 0 0 0 2.93-3.87l.11-.54-1.76-.11c-3.22-.22-5.57-.9-9.02-2.63a21.84 21.84 0 0 1-4.9-3.19c-.99-.9-1.22-1-1.64-.73-.28.18.58 2 2.12 4.47 2.29 3.68 5.3 6.3 8.03 6.98a7.2 7.2 0 0 0 4.13-.38zm32.31-2.65c0-.05-.44-.96-.97-2.03a56.03 56.03 0 0 1-2.82-6.91c-.35-1.06-.46-1.2-1.37-1.8a40.7 40.7 0 0 1-7.35-6.85c-.47-.64-1.39-1.18-1.49-.88-.03.1-.2.2-.36.2-.41 0-.71.34-.71.8 0 .23-.08.4-.17.4-.1 0-.26.34-.36.74-.11.4-.27.87-.34 1.02-.1.2.1.83.63 2l1.1 2.41c.46 1.03 2.7 3.95 4.19 5.43a22.27 22.27 0 0 0 7.91 5.15c1.07.38 2.11.54 2.11.32zm-56.14-1.8c-.2-.4-.55-.8-.78-.88-.58-.22-1.87-1.9-2.66-3.46-.55-1.08-.74-1.31-1.13-1.36-.25-.03-.46 0-.46.05 0 .3 1.1 2.22 1.8 3.12.7.92 3.4 3.42 3.54 3.3.03-.03-.1-.38-.31-.77zm26.82-1.2c.44-.28-.21-3.13-1.12-4.94l-.43-.84-1.33.15c-2.63.3-5.98.15-8.68-.36-2.55-.49-3.58-.49-3.77 0-.1.28.24.6 1.86 1.7a30.38 30.38 0 0 0 8.13 3.81c1.93.51 4.87.78 5.34.48zm-28.03-1.85a8.61 8.61 0 0 1-.36-1.53c0-.58-.23-.8-.92-.92-.53-.09-.63-.05-.63.2 0 .66 2.06 4.02 2.2 3.6.04-.1-.1-.72-.29-1.35zm25.49-4.89c.25-.25-1.26-1.5-2.59-2.14-1.81-.88-1.96-.87-4.57.37l-2.38 1.14c-.18.16.26.28 2.26.59 2.3.36 6.93.39 7.28.04zm26.77-4.14a50.78 50.78 0 0 1-1.12-7.65c-.19-2.48-.1-2.34-2.37-4.02-1.86-1.38-3.03-2.08-3.47-2.08-.19 0-1.14-.36-2.12-.8-.98-.44-2.09-.84-2.45-.89-.66-.09-.68-.07-1.04.74-.4.9-.45 1.3-.19 1.3a6 6 0 0 1 1.2 1.03l1.04 1.03.11-.6c.07-.33.07-.72.02-.86-.08-.19.01-.26.32-.26a.7.7 0 0 0 .6-.35c.15-.26.37-.34.93-.34.4 0 .82.07.91.17.24.24.13 3.1-.19 4.6-.45 2.23-.36 2.62 1.13 4.5 1.7 2.13 6.74 6.74 7.05 6.43.04-.04-.13-.91-.36-1.95zm-11.02-12.37c0-.19.07-.34.17-.34s.17.15.17.34c0 .2-.08.35-.17.35-.1 0-.17-.16-.17-.35zm-2.42 1.86c.23.05.36.03.29-.05-.08-.08.03-.23.23-.34.36-.2.36-.2-.1-.74-.25-.3-.57-.55-.7-.55-.12 0-.47.29-.76.64l-.53.65.39.3c.23.17.46.23.57.13.1-.08.38-.1.6-.04zm12.41-3c.33-3 1.06-6.14 1.88-8.11.13-.32.08-.33-1.09-.22-2.56.24-11.12 2.67-11.5 3.27-.13.2-.04 1.24.12 1.54.03.05.5.2 1.05.32 1.46.33 3.2 1.02 3.7 1.47.24.21 1.22.9 2.17 1.53s2.05 1.38 2.43 1.67c.38.3.77.5.86.48.1-.03.27-.9.38-1.95zm-22.49 1.6a4.59 4.59 0 0 0-.93-.17c-.59-.06-.73-.05-.44.05.44.15 1.51.24 1.37.12zm-10.55-1.71c4.14-.86 5.17-1.28 2-.83-1.5.21-6.7 1.34-7.28 1.57-.99.4 1.26.09 5.28-.74zm16.02-.78c.93.11 2.13-6.12 1.75-9.12-.12-.95-.14-.98-.91-1.32-.43-.2-.8-.35-.83-.35-.02 0-.08 1.34-.14 2.99a41.94 41.94 0 0 1-.35 4.46l-.44 2.6c-.1.62-.23 1.32-.3 1.56-.1.36-.04.33.38-.21.32-.4.63-.63.84-.6zm-18.1-.84a16.9 16.9 0 0 0 2.12-.59c.26-.22.98-3.23 1.2-5.03.15-1.2.23-3.89.22-7.88 0-5.43-.04-6.33-.4-8.56-.45-2.93-1.42-6.83-2-8.1-.37-.8-.5-.94-1.17-1.13-1.17-.34-4.84-.28-6.3.1-2.36.63-6.16 2.54-6.14 3.1 0 .12.38.46.84.77a22.2 22.2 0 0 1 4.7 4.93 24.55 24.55 0 0 1 3.12 6.35c1.59 4.78 1.98 8.96 1.44 15.43-.1 1.05-.07 1.26.13 1.18.14-.05 1.14-.3 2.24-.57zm11.73-.87c.63-.1.69-.22 1.51-3.59a30.53 30.53 0 0 0 1.04-8.7l.02-3.46-.84-1.74c-.8-1.69-2.35-4.23-2.56-4.24-.06 0-.07 1.94-.02 4.32.1 4.63-.11 8.28-.67 11.97a75.6 75.6 0 0 1-.96 5.42c-.08.27 0 .3.92.2.55-.05 1.26-.13 1.56-.18zm-55.05-3.1a8.47 8.47 0 0 0-1.58-.94c-1.4-.7-2.68-1.02-3.23-.8-.21.08.19.29 1.34.68.9.3 1.96.73 2.34.93.84.45 1.45.52 1.13.13zm70.75-1.56a53 53 0 0 1 8.44-2.08c1.73-.2 1.64-.13 2.7-2.1 1-1.86 2.98-4.97 3.93-6.18.28-.37.47-.71.4-.77-.29-.3-5.87 1.73-8.07 2.94-2.36 1.3-4.07 2.53-8.55 6.2-1.91 1.56-2.01 1.67-2.02 2.3 0 .35.06.64.14.64.08 0 1.44-.43 3.03-.95zm-46.82.53a8.03 8.03 0 0 0 6.25-6.66 7.83 7.83 0 0 0-4.26-8.17 7.72 7.72 0 0 0-5.44-.37 8.4 8.4 0 0 0-5.01 4.63c-.44.93-.49 1.21-.49 2.93 0 1.85.03 1.95.65 3.26a7.73 7.73 0 0 0 5.33 4.4c1.27.27 1.62.27 2.97-.02zm-2.4-4.94a4.25 4.25 0 0 1-2.79-2.77 3.82 3.82 0 0 1 .95-3.94c2.19-2.2 5.89-.9 6.49 2.28.48 2.56-2.14 5.06-4.65 4.43zm.6-4.9c.47-.44.53-1.36.12-1.7-.72-.6-2.33.06-2.33.95 0 1.07 1.37 1.54 2.2.76zm-20.94 6c3.86-11.14 5.98-15.4 10-20.16a40.06 40.06 0 0 1 6.78-6.16l2.06-1.56v-.78c0-1.53 2.44-7.06 4.66-10.56 2.9-4.56 7.34-9.32 12.83-13.74a64.3 64.3 0 0 1 8.72-5.67c5.9-3 12.64-4.83 18.04-4.88a6.8 6.8 0 0 0 1.65-.15c.73-.3-.28-.4-2.92-.3-7.78.3-16.27 3.2-23.47 7.98-7.53 5-13.85 11.95-17.2 18.86-1.02 2.13-2.76 6.98-2.76 7.72 0 .27-.25.57-.81.96-4.2 2.91-5.83 4.3-7.99 6.8a45.06 45.06 0 0 0-2.85 3.72c-1.51 2.3-3.7 6.7-4.7 9.53-1.52 4.3-3.76 11.57-3.65 11.86.07.17.18.23.27.14.08-.08.68-1.7 1.34-3.6zm68.06.4c.88-.69 2.4-1.9 3.38-2.71.99-.8 2.3-1.79 2.92-2.19 2.48-1.6 6.68-3.4 10.14-4.32l1.73-.47 3.07-3.14c1.69-1.73 3.07-3.17 3.08-3.2.03-.26-2.67.38-5.41 1.28a47.23 47.23 0 0 0-8.54 4.18 56.26 56.26 0 0 0-7.19 5.84c-2.22 2.08-4.46 3.74-5.03 3.74-.18 0-.36.06-.4.14-.1.16.42 2.11.56 2.11.06 0 .82-.56 1.7-1.25zm-.55-2.62a34.5 34.5 0 0 0 2.79-2.4c5.73-5.44 9.82-8.22 15.16-10.28 1.98-.76 5.5-1.64 7.08-1.76 1.24-.1 1.32-.13 2.68-1.17a37.5 37.5 0 0 1 2.15-1.54c.4-.25.73-.53.73-.62 0-.29-2.75-1.05-4.4-1.22-4.17-.43-9.6 1.14-14.23 4.11a42.89 42.89 0 0 0-10.61 10.22c-1.83 2.44-2.99 4.21-2.75 4.21.03 0 .77-.92 1.63-2.04 2.58-3.35 3.4-3.87 1.15-.73-1.68 2.35-2.42 3.18-2.74 3.06-.31-.12-1.05.65-.88.93.21.34 1.1.04 2.24-.77zm-68.81-.38c.19-.48.11-.88-.33-1.83a4.6 4.6 0 0 1 2.27-6.23c.67-.3 1.11-.88 1.11-1.46 0-.43-.94-.3-2.1.31-2.96 1.53-3.84 5.5-1.94 8.75.45.77.8.93.99.46zm2.18-6.3c.4-.98-.23-1.55-.96-.87-.45.43-.56 1.12-.2 1.27.57.23.96.1 1.16-.4zm13.37-2.03a12.15 12.15 0 0 1 4.14-3.75c1.4-.69 3.8-1.2 5.24-1.13.45.02.83-.03.83-.12.04-.35-1.83-.79-3.36-.8-1.35 0-1.66.07-2.67.54a8.54 8.54 0 0 0-3.47 2.85c-.77 1.04-1.6 2.59-1.6 3 0 .43.34.2.89-.6zm41.48-5.35c-.58-2-1.66-4.21-3.17-6.5a21.71 21.71 0 0 0-4.23-4.95 19.5 19.5 0 0 0-10.69-4.94c-2.44-.32-7.98.02-8.56.54-.08.07 1.67.17 3.9.23 4.34.1 5.48.27 8.08 1.14a19.9 19.9 0 0 1 8.52 5.5 32.25 32.25 0 0 1 6 9.55c.27.69.52 1.19.55 1.11.02-.07-.16-.83-.4-1.68zm4.03-4.38c.15-.1-.02-.25-.52-.46a8.05 8.05 0 0 1-2.76-2.49 10.6 10.6 0 0 1-.76-1.66c-.43-1.16-.48-1.18-1.72-.67-.92.38-.89.34-.5.79.2.21.74.93 1.2 1.6 1.5 2.2 1.99 2.57 3.58 2.84 1.24.2 1.23.2 1.48.05zm-6.7-6.65c.52-.2 1.02-.46 1.11-.56.1-.1.3-.19.43-.19.18 0 .31-.26.4-.78.09-.43.26-1.26.4-1.85.13-.6.25-1.16.25-1.25 0-.25-1.65-.71-2.52-.71-.4 0-1.18.16-1.73.35-1.27.43-3.58 1.58-3.51 1.74.02.07.67.62 1.44 1.23.77.6 1.66 1.4 1.97 1.75.31.36.63.65.7.65.07 0 .55-.17 1.07-.38zm-32.23-2.77c.6-.34.84-.7 2.05-3.12a69.8 69.8 0 0 1 9.17-13.52c1.65-1.91 3.3-3.51 3.46-3.35.12.12-.36.77-2.31 3.12A99.93 99.93 0 0 0 89.68 115c-.88 1.5-1.74 3.25-1.6 3.25.02 0 .74-.3 1.59-.67a28.35 28.35 0 0 1 5.82-1.77l1.16-.2 1.47-2.36c5.94-9.59 13.64-16.05 21.59-18.1 1.79-.47 1.8-.48 2.72-2.22a17.97 17.97 0 0 1 5.1-5.75c.41-.3.39-.3-1.2-.2-2.18.14-5.93.93-8.47 1.78-6.63 2.21-11.72 5.17-17.64 10.25-7.08 6.06-11.56 11.91-14.2 18.53-1.01 2.57-1.02 2.52.1 1.89zm23.63-3.2.12-.47.2.4c.12.23.3.45.42.48.31.1.27-.46-.04-.58a.48.48 0 0 1-.26-.42c0-.26.18-.32 1.21-.37.67-.03 1.22 0 1.22.06 0 .13 1.13.04 1.38-.11.1-.06.68.02 1.3.17.87.22 1.74.28 3.64.23 1.92-.05 2.41-.01 2.13.14l-.37.19.37.2c.52.28.64.24.92-.26.13-.25.98-.97 1.89-1.6l1.7-1.17c.03-.02-.51-.61-1.22-1.31a11.3 11.3 0 0 1-2.93-4.91l-.47-1.39-.91.06c-3.5.22-9 3.21-12.11 6.58-2.4 2.6-2.99 3.32-2.75 3.4.27.1 3.42.8 3.74.83.12 0 .22.08.22.16 0 .36.5.1.6-.32zm-3.39-4.1a33.1 33.1 0 0 1 4.8-4.16c2.7-1.79 5.28-2.9 8.11-3.5a5.22 5.22 0 0 0 1.32-.38c.07-.08.05-.88-.03-1.79-.16-1.6 0-4 .36-5.58.08-.35.11-.67.07-.72-.13-.13-2.45.56-3.99 1.18-3 1.22-5.68 2.92-8.65 5.5-3.33 2.89-7.96 8.48-9.4 11.36l-.55 1.09h4.92z" fill="#fbc10d"/>
    <path d="M146.64 199.33a25.57 25.57 0 0 1-8.82-3.83c-7.26-5.02-12.53-15.19-14.2-27.44a13.8 13.8 0 0 0-.4-2.2c-.07-.08-.87.63-1.78 1.55a53.73 53.73 0 0 1-5.92 5.22c-.45.3-.82.63-.82.71 0 .09.55.52 1.23.96a11.63 11.63 0 0 1 5.33 8.63c.15 1.5 0 3.54-.34 4.6a7.8 7.8 0 0 1-3.93 4.67c-.87.4-1.2.46-2.73.45-1.41 0-1.97-.1-3.08-.47-.74-.26-1.38-.47-1.43-.47-.29 0 .13.55 1.65 2.15.96 1 1.74 1.9 1.74 2 0 .7-2.4.95-4.17.43-5.13-1.53-10.12-7.2-12.7-14.45l-.59-1.65-1.67-.05-1.67-.05v.45c0 .76 1.8 4.76 3.16 7.06l.4.66-.5.43c-.6.53-1 .53-2.14 0-2.96-1.38-5.45-3.96-7.24-7.5l-.8-1.59-.99-.28c-6.51-1.83-11.15-4.22-15.23-7.84a31.4 31.4 0 0 1-4.8-5.48l-.59-.93-1.22-.12c-3.37-.33-5.22-2.76-3.93-5.18l.43-.8-.77-.8a5.99 5.99 0 0 1-1.79-3.97c-.06-1.48.27-2.13 1.39-2.72.61-.33 1.02-.4 2.3-.4h1.54l.42-1.04c.46-1.14.5-.95-.5-2.45-1.06-1.61-1.28-2.42-1.28-4.75 0-2.1.01-2.2.56-3.32a7.58 7.58 0 0 1 5.65-4.34l1.2-.22.77-1.39c3.37-6.04 6.45-9.48 11.67-13.05a6.8 6.8 0 0 0 1.51-1.29c.11-.21.54-1.44.96-2.73 2.3-7.04 6.24-13 12.5-18.87 8.3-7.79 18.56-12.7 29.03-13.9 3.4-.38 9.17.02 10.53.74.69.36.48.8-.66 1.37-6.05 3.05-9.13 6-10.63 10.2-.92 2.56-1 6.52-.2 9.63.78 3 2.9 5.82 4.87 6.44.54.17 1.03.42 1.08.56.13.32-.57.89-2.17 1.78-1.8 1-2.87 2.03-3.55 3.4-.53 1.1-.57 1.26-.57 3.07a5.67 5.67 0 0 0 3.5 5.88 8.1 8.1 0 0 0 2.26.27c1.2 0 1.47.06 1.56.3.31.82-1.65 2.59-3.59 3.23-.52.18-1.67.36-2.56.42-.88.05-1.6.14-1.6.2a67.48 67.48 0 0 1 2.58 10.53c.43 2.59.57 3.1 1.04 3.83.6.93 1.11 1.25 2.02 1.25.85 0 1.63-.77 3.47-3.42a45.81 45.81 0 0 1 5.52-6.79c4.48-4.6 8.66-7.38 13.6-9.03 2.62-.88 4.6-1.2 7.22-1.2 3.4 0 5.74.58 7.58 1.9 1.05.75 1.32 1.24.96 1.68-.13.16-.86.69-1.62 1.18-2.63 1.71-4.69 3.44-7.9 6.65-4.28 4.28-7.15 8.08-9.34 12.34a30.09 30.09 0 0 0-2.94 15.56c.9 12.13 6.2 24.21 11.85 27.05 1.05.53 1.4.62 2.72.67 1 .04 1.54.13 1.6.27.15.4-.48 1.4-1.61 2.54a12.08 12.08 0 0 1-5.12 2.87c-1.22.33-5.9.48-7.31.23zm6.67-2.26c1.37-.35 3.85-1.42 3.84-1.67 0-.07-.55-.36-1.21-.62-1.99-.8-4.42-3-6-5.42-.2-.3-.54-.44-1.42-.59-.64-.11-1.94-.5-2.9-.88-4.07-1.6-7.36-4.22-10.5-8.4-.68-.9-1.29-1.64-1.36-1.64-.07 0-.54.97-1.04 2.16a28.06 28.06 0 0 1-1.16 2.51c-.27.39-.57.47-.57.15 0-.4-.6-1.53-.8-1.53-.25 0-.42-.4-.42-.98 0-.23-.07-.38-.16-.32-.28.17-1.14-1.94-1.8-4.42a72.77 72.77 0 0 1-1.76-8.75c-.32-2.4-.39-2.68-.65-2.68-.43 0 .41 6.23 1.36 10.04 1.1 4.41 3.48 10 5.5 12.89 2.9 4.15 6 6.85 10.05 8.79 3.8 1.81 7.46 2.26 11 1.36zm-44.92-4.31a43.3 43.3 0 0 1-2.19-3.68 83 83 0 0 0-2.04-3.7 67.96 67.96 0 0 1-2.06-3.8c-.52-1.05-1-1.98-1.09-2.06-.13-.14-1.85.08-2.84.36-.41.11-.33.65.4 2.67 1.27 3.47 4.33 7.77 7 9.84 1.06.81 3.55 2.27 3.88 2.27.12 0-.35-.86-1.06-1.9zm7.96-2.65a5.82 5.82 0 0 0 2.93-3.87l.11-.54-1.76-.11c-3.22-.22-5.57-.9-9.02-2.63a21.84 21.84 0 0 1-4.9-3.19c-.99-.9-1.22-1-1.64-.73-.28.18.58 2 2.12 4.47 2.29 3.68 5.3 6.3 8.03 6.98a7.2 7.2 0 0 0 4.13-.38zm32.31-2.65c0-.05-.44-.96-.97-2.03a56.03 56.03 0 0 1-2.82-6.91c-.35-1.06-.46-1.2-1.37-1.8a40.7 40.7 0 0 1-7.35-6.85c-.47-.64-1.39-1.18-1.49-.88-.03.1-.2.2-.36.2-.41 0-.71.34-.71.8 0 .23-.08.4-.17.4-.1 0-.26.34-.36.74-.11.4-.27.87-.34 1.02-.1.2.1.83.63 2l1.1 2.41c.46 1.03 2.7 3.95 4.19 5.43a22.27 22.27 0 0 0 7.91 5.15c1.07.38 2.11.54 2.11.32zm-56.14-1.8c-.2-.4-.55-.8-.78-.88-.58-.22-1.87-1.9-2.66-3.46-.55-1.08-.74-1.31-1.13-1.36-.25-.03-.46 0-.46.05 0 .3 1.1 2.22 1.8 3.12.7.92 3.4 3.42 3.54 3.3.03-.03-.1-.38-.31-.77zm26.82-1.2c.44-.28-.21-3.13-1.12-4.94l-.43-.84-1.33.15c-2.63.3-5.98.15-8.68-.36-2.55-.49-3.58-.49-3.77 0-.1.28.24.6 1.86 1.7a30.38 30.38 0 0 0 8.13 3.81c1.93.51 4.87.78 5.34.48zm-28.03-1.85a8.61 8.61 0 0 1-.36-1.53c0-.58-.23-.8-.92-.92-.53-.09-.63-.05-.63.2 0 .66 2.06 4.02 2.2 3.6.04-.1-.1-.72-.29-1.35zm25.49-4.89c.25-.25-1.26-1.5-2.59-2.14-1.81-.88-1.96-.87-4.57.37l-2.38 1.14c-.18.16.26.28 2.26.59 2.3.36 6.93.39 7.28.04zm26.77-4.14a50.78 50.78 0 0 1-1.12-7.65c-.19-2.48-.1-2.34-2.37-4.02-1.86-1.38-3.03-2.08-3.47-2.08-.19 0-1.14-.36-2.12-.8-.98-.44-2.09-.84-2.45-.89-.66-.09-.68-.07-1.04.74-.4.9-.45 1.3-.19 1.3a6 6 0 0 1 1.2 1.03l1.04 1.03.11-.6c.07-.33.07-.72.02-.86-.08-.19.01-.26.32-.26a.7.7 0 0 0 .6-.35c.15-.26.37-.34.93-.34.4 0 .82.07.91.17.24.24.13 3.1-.19 4.6-.45 2.23-.36 2.62 1.13 4.5 1.7 2.13 6.74 6.74 7.05 6.43.04-.04-.13-.91-.36-1.95zm-11.02-12.37c0-.19.07-.34.17-.34s.17.15.17.34c0 .2-.08.35-.17.35-.1 0-.17-.16-.17-.35zm-42.9 10.92c3.73-.82 6.6-2.32 8.85-4.61.84-.86.9-.85 2.73.69 2.27 1.9 4.19 2.76 6.7 3 1.4.12 3.43-.28 4.34-.86l.6-.38-2.42-.12a15.56 15.56 0 0 1-6.67-1.54c-1.44-.69-2.77-1.74-2.77-2.2 0-.33.1-.3 2.16.73a12.18 12.18 0 0 0 6.15 1.6c3.24.13 5.61-.51 8.06-2.2.9-.62 2.9-2.44 2.8-2.54a3.6 3.6 0 0 0-1.05.36c-1.2.53-4.11 1.38-6.14 1.78-2.07.42-6.17.41-8.17-.01-1.63-.34-2.95-.86-2.95-1.15 0-.37.58-.39 2.31-.07 2.78.51 6.83.44 9.72-.18 2.39-.5 4.16-1.08 5.56-1.8l.87-.44-1.47-.24c-2.1-.33-4.72-.17-8.61.54-4.13.75-5.35.87-6.97.65-1.4-.18-1.76-.38-1.43-.77.15-.18.87-.27 2.84-.34 3.1-.11 6.65-.84 7.79-1.6 1.01-.67.86-.83-.69-.72l-1.34.1 1.73-.4c1.43-.34 1.6-.42 1.02-.43-1.58-.04-9.94 1.72-8.82 1.85.28.04.97-.02 1.53-.13a3.74 3.74 0 0 1 1.1-.13c.15.16-3 .66-4.7.76-1.92.1-2.76-.08-2.66-.6.05-.23.3-.32 1.1-.41 1.48-.17 1.97-.4 2.25-1.06.73-1.75 1-7.46.51-10.87-1.06-7.47-5.06-14.3-9.76-16.69-.63-.32-1.17-.7-1.2-.84-.13-.7 1.89-2.5 4.09-3.66 4.71-2.47 9.66-2.7 13.77-.62 4.07 2.05 7.62 5.58 10.52 10.47a61.67 61.67 0 0 0 1.3 2.11c.08.1.05-.06-.44-2.03-.2-.81-.4-1.84-.43-2.28-.14-1.97-1.54-5.17-3.63-8.3a21.42 21.42 0 0 0-4.11-4.78 19.5 19.5 0 0 0-10.69-4.94c-2.44-.32-7.98.02-8.56.54-.08.07 1.67.17 3.9.23 4.34.1 5.48.27 8.08 1.14a21.73 21.73 0 0 1 11.05 8.6c1.04 1.51 1.9 3.03 1.72 3.03-.04 0-.21-.25-.37-.56a28.56 28.56 0 0 0-7.3-8.3 28.35 28.35 0 0 0-6.9-3.07c-1.94-.52-4.04-.72-7.38-.72-3.46 0-5.09.26-7.51 1.24-3.29 1.31-6.56 3.47-10.75 7.1a37.54 37.54 0 0 0-6.43 7.35c-1.7 2.61-4.2 8-5.42 11.69-.11.33-.32.8-.47 1.04-.33.54-.3.46.99-3.04 1.3-3.48 3.4-7.77 4.97-10.13 2.52-3.78 5.17-6.51 9.52-9.8l2.06-1.55v-.78c0-1.53 2.44-7.06 4.66-10.56 2.9-4.56 7.34-9.31 12.83-13.74a64.3 64.3 0 0 1 8.72-5.66c5.9-3.02 12.64-4.84 18.04-4.89a6.8 6.8 0 0 0 1.65-.15c.73-.3-.28-.4-2.92-.3-7.78.3-16.27 3.2-23.47 7.98-7.53 5-13.85 11.95-17.2 18.86-1.02 2.13-2.76 6.98-2.76 7.72 0 .27-.25.57-.81.96-4.2 2.91-5.83 4.3-7.99 6.8a36.65 36.65 0 0 0-5.41 8.31c-1.53 3.1-2.23 4.99-4.41 11.83-1.08 3.36-1.46 4.8-1.35 5 .22.4.25.34 1.42-3 1.25-3.56 1.36-3.48.18.12a34.71 34.71 0 0 0-.87 2.87c0 .3 3.08 2.5 4.43 3.17a8.73 8.73 0 0 0 4.5 1.12c.85 0 2.02-.12 2.6-.26.9-.22 1.04-.3 1.04-.67 0-.94 1.9-.46 2.97.76.46.51.55.55.72.3.16-.24.2-.24.37 0 .53.77.3 2.19-.28 1.7-.17-.14-.3-.14-.49.02-.38.31-.74.1-1.03-.6-.14-.33-.31-.6-.39-.6-.07 0-.4.25-.74.58-.34.32-1.2.88-1.91 1.24-.72.36-1.5.83-1.74 1.05-.65.6-3.02 1.7-4.73 2.22l-1.52.46.57 1.07c.8 1.48 3.16 3.81 4.92 4.86a24.17 24.17 0 0 0 8.47 3.06c1.97.25 5.5.1 7.46-.34zm18.46-11.87c.53-.13 1.27-.28 1.65-.33.53-.07.47-.03-.26.16-.53.13-1.27.28-1.65.33-.53.06-.47.03.26-.16zm-23.5-5.53a9.3 9.3 0 0 1-6.57-6.64 10.4 10.4 0 0 1 .69-6.57 11.89 11.89 0 0 1 3.88-4.02 8.76 8.76 0 0 1 8.11-.11c3.11 1.42 4.94 4.4 4.95 8.07 0 2.82-.87 5-2.76 6.85a8.85 8.85 0 0 1-8.3 2.42zm3.42-1.4a8.03 8.03 0 0 0 6.25-6.65 7.83 7.83 0 0 0-4.26-8.17 7.72 7.72 0 0 0-5.44-.37 8.4 8.4 0 0 0-5.01 4.63c-.44.93-.49 1.21-.49 2.93 0 1.85.03 1.95.65 3.26a7.73 7.73 0 0 0 5.33 4.4c1.27.27 1.62.27 2.97-.02zm-2.4-4.93a4.25 4.25 0 0 1-2.79-2.77 3.82 3.82 0 0 1 .95-3.94c2.19-2.2 5.89-.9 6.49 2.28.48 2.56-2.14 5.06-4.65 4.43zm.6-4.9c.47-.44.53-1.36.12-1.7-.72-.6-2.33.06-2.33.95 0 1.07 1.37 1.54 2.2.76zm-8.88-1.37a8 8 0 0 1 .25-2.75c1.25-5.76 5.58-9.1 10.22-7.9 2.33.62 5.39 2.64 5.39 3.58 0 .29-.52.17-1.26-.3a6.95 6.95 0 0 0-1.43-.67c-.38-.12-.7-.31-.7-.43 0-.42-1.79-.88-3.43-.88-1.4 0-1.65.05-2.78.59-.68.32-1.6.91-2.05 1.31-1.37 1.22-3.22 4.28-2.82 4.67.07.06.3-.11.5-.4.92-1.26 1.23-1.42.37-.18-1.1 1.58-1.39 2.15-1.68 3.33-.32 1.24-.45 1.25-.58.03zm3.9-5.57c.71-.76.87-.9.87-.77 0 .03-.37.4-.83.82l-.82.78zm1.56-1.26c0-.35 3.3-1.48 4.25-1.45.19 0-.26.16-1 .34-.74.18-1.58.45-1.86.6-.7.35-1.39.61-1.39.51zm5.33-1.6a4.6 4.6 0 0 1 1.04 0c.26.05 0 .08-.56.08-.58 0-.79-.03-.48-.07zm31.4-2.47c-.19-.38-.3-.69-.26-.69.05 0 .25.31.44.7.2.37.32.69.27.69a2.4 2.4 0 0 1-.44-.7zm10.59 31.84c.23.05.36.03.29-.05-.08-.08.03-.23.23-.34.36-.2.36-.2-.1-.74-.25-.3-.57-.55-.7-.55-.12 0-.47.29-.76.64l-.53.65.39.3c.23.17.46.23.57.13.1-.08.38-.1.6-.04zm-62.63-.66c1.86-.36 3.34-.8 4.16-1.28l.5-.28-.7.1-2.43.36c-3.3.51-7.27.27-8.2-.5-.31-.25-.72.27-.6.76.12.44 1.16 1.07 2.04 1.22.97.17 3.14.01 5.23-.38zm75.04-2.34c.33-3 1.06-6.14 1.88-8.11.13-.32.08-.33-1.09-.22-2.56.24-11.12 2.67-11.5 3.27-.13.2-.04 1.24.12 1.54.03.05.5.2 1.05.32 1.46.33 3.2 1.02 3.7 1.47.24.21 1.22.9 2.17 1.53s2.05 1.38 2.43 1.67c.38.3.77.5.86.48.1-.03.27-.9.38-1.95zm-22.49 1.6a4.59 4.59 0 0 0-.93-.17c-.59-.06-.73-.05-.44.05.44.15 1.51.24 1.37.12zm5.47-2.49c.93.11 2.13-6.12 1.75-9.12-.12-.95-.14-.98-.91-1.32-.43-.2-.8-.35-.83-.35-.02 0-.08 1.34-.14 2.99a41.94 41.94 0 0 1-.35 4.46l-.44 2.6c-.1.62-.23 1.32-.3 1.56-.1.36-.04.33.38-.21.32-.4.63-.63.84-.6zm-50.27-.23a11.6 11.6 0 0 0 1.9-1.01c.92-.6.99-.7.69-.86-.26-.14-.38-.1-.53.14-.63 1.01-4.28 1.39-6.78.7a18.27 18.27 0 0 1-4.67-2.21c-.5-.34-1.2-.71-1.56-.84-.35-.12-.5-.23-.31-.23.56-.02 0-.47-1.47-1.21-1.4-.7-2.7-1.02-3.23-.79-.25.1-.17.18.39.37l.69.23-.65-.1c-.9-.12-1.34.15-1.34.84 0 .31.07.68.16.82.14.22.18.2.28-.05.06-.16.41-.38.77-.5.98-.28 2.02.04 4.07 1.28 4.6 2.8 5.96 3.45 7.74 3.76 1.2.22 2.74.08 3.85-.34zm-12.89-4.84c-.33-.18-.53-.33-.43-.33.1 0 .45.15.78.33.33.18.53.33.43.33-.1 0-.44-.15-.78-.33zm-1.47-.61c-.43-.21-.45-.24-.09-.15.5.12 1.05.4.78.4-.1 0-.4-.12-.7-.25zm46.53 4.84a16.9 16.9 0 0 0 2.12-.59c.26-.22.98-3.23 1.2-5.03.15-1.2.23-3.89.22-7.88 0-5.43-.04-6.33-.4-8.56-.45-2.93-1.42-6.83-2-8.1-.37-.8-.5-.94-1.17-1.13-1.17-.34-4.84-.28-6.3.1-2.36.63-6.16 2.54-6.14 3.1 0 .12.38.46.84.77a22.2 22.2 0 0 1 4.7 4.93 24.55 24.55 0 0 1 3.12 6.35c1.59 4.78 1.98 8.96 1.44 15.43-.1 1.05-.07 1.26.13 1.18.14-.05 1.14-.3 2.24-.57zm11.73-.87c.63-.1.69-.22 1.51-3.59a30.53 30.53 0 0 0 1.04-8.7l.02-3.46-.84-1.74c-.8-1.69-2.35-4.23-2.56-4.24-.06 0-.07 1.94-.02 4.32.1 4.63-.11 8.28-.67 11.97a75.6 75.6 0 0 1-.96 5.42c-.08.27 0 .3.92.2.55-.05 1.26-.13 1.56-.18zm4.3-1c.43-.58.7-2.97.7-6.19v-3.22l-.52-.67-.52-.68-.21 2.1a73.6 73.6 0 0 1-.67 4.67c-.26 1.42-.5 2.99-.56 3.49l-.08.9.83-.06c.5-.04.91-.18 1.04-.34zm6.28-.58c.47-.08.57-.18.67-.7.25-1.34-.3-5.24-.83-5.89-.14-.16-.28-.16-.65.04l-.48.24-.12 2.74c-.06 1.5-.16 3-.22 3.33l-.1.59.58-.12 1.15-.23zm5.12-3.08a53 53 0 0 1 8.44-2.08c1.73-.2 1.64-.13 2.7-2.1 1-1.86 2.98-4.97 3.93-6.18.28-.37.47-.71.4-.77-.29-.3-5.87 1.73-8.07 2.94-2.36 1.3-4.07 2.53-8.55 6.2-1.91 1.56-2.01 1.67-2.02 2.3 0 .35.06.64.14.64.08 0 1.44-.43 3.03-.95zm-19.86-1.52a6.91 6.91 0 0 0 1.5-1.1c.73-1.88.62-15.4-.13-16.85-.3-.56-2.02-2.21-3.5-3.35-1-.78-2.47-1.61-2.6-1.49-.03.04.06.45.2.92a62.5 62.5 0 0 1 1.5 7.07c.32 2.11.37 3.21.38 7.83.01 2.95-.05 6.1-.13 6.98l-.14 1.62.75-.38c.41-.21 1.39-.77 2.17-1.25zm18.36-1.38 3.38-2.72c.99-.8 2.3-1.79 2.92-2.19 2.48-1.6 6.68-3.4 10.14-4.32l1.73-.47 3.07-3.14c1.69-1.73 3.07-3.17 3.08-3.2.03-.26-2.67.38-5.41 1.28a47.23 47.23 0 0 0-8.54 4.18 56.26 56.26 0 0 0-7.19 5.84c-2.22 2.08-4.46 3.74-5.03 3.74-.18 0-.36.06-.4.14-.1.16.42 2.11.56 2.11.06 0 .82-.56 1.7-1.25zm-.55-2.63a34.5 34.5 0 0 0 2.79-2.4c5.73-5.44 9.82-8.22 15.16-10.28 1.98-.76 5.5-1.64 7.08-1.76 1.24-.1 1.32-.13 2.68-1.17a37.5 37.5 0 0 1 2.15-1.54c.4-.25.73-.53.73-.62 0-.29-2.75-1.05-4.4-1.22-4.17-.43-9.6 1.14-14.23 4.11a42.89 42.89 0 0 0-10.61 10.22c-1.83 2.44-2.99 4.21-2.75 4.21.03 0 .77-.92 1.63-2.04 2.58-3.35 3.4-3.87 1.15-.73-1.68 2.35-2.42 3.18-2.74 3.06-.31-.12-1.05.65-.88.93.21.34 1.1.04 2.24-.77zm-68.81-.38c.19-.48.11-.88-.33-1.83a4.6 4.6 0 0 1 2.27-6.23c.67-.3 1.11-.88 1.11-1.46 0-.43-.94-.3-2.1.31-2.96 1.53-3.84 5.5-1.94 8.75.45.77.8.93.99.46zm2.18-6.3c.4-.98-.23-1.55-.96-.87-.45.43-.56 1.12-.2 1.27.57.23.96.1 1.16-.4zm58.88-11.76c.15-.1-.02-.25-.52-.46a8.05 8.05 0 0 1-2.76-2.49 10.6 10.6 0 0 1-.76-1.66c-.43-1.16-.48-1.18-1.72-.67-.92.38-.89.34-.5.79.2.21.74.93 1.2 1.6 1.5 2.2 1.99 2.57 3.58 2.84 1.24.2 1.24.2 1.48.05zm-6.7-6.65c.52-.2 1.02-.46 1.11-.56.1-.1.3-.19.43-.19.18 0 .31-.26.4-.78.09-.43.26-1.26.4-1.85.13-.6.25-1.16.25-1.25 0-.25-1.65-.71-2.52-.71-.4 0-1.18.16-1.73.35-1.27.43-3.58 1.58-3.51 1.74.02.07.67.62 1.44 1.23.77.6 1.66 1.4 1.97 1.75.31.36.63.65.7.65.07 0 .55-.17 1.07-.38zm-32.23-2.77c.6-.34.84-.7 2.05-3.12a69.8 69.8 0 0 1 9.17-13.52c1.65-1.91 3.3-3.51 3.46-3.35.12.12-.36.77-2.31 3.12A99.93 99.93 0 0 0 89.68 115c-.88 1.5-1.74 3.25-1.6 3.25.02 0 .74-.3 1.59-.67a28.35 28.35 0 0 1 5.82-1.77l1.16-.2 1.47-2.36c5.94-9.59 13.64-16.05 21.59-18.1 1.79-.47 1.8-.48 2.72-2.22a17.97 17.97 0 0 1 5.1-5.75c.41-.3.39-.3-1.2-.2-2.18.14-5.93.93-8.47 1.78-6.63 2.21-11.72 5.17-17.64 10.25-7.08 6.06-11.56 11.91-14.2 18.53-1.01 2.57-1.02 2.52.1 1.89zm23.63-3.2.12-.47.2.4c.12.23.3.45.42.48.31.1.27-.46-.04-.58a.48.48 0 0 1-.26-.42c0-.26.18-.32 1.21-.37.67-.03 1.22 0 1.22.06 0 .13 1.13.04 1.38-.11.1-.06.68.02 1.3.17.87.22 1.74.28 3.64.23 1.92-.05 2.41-.01 2.13.14l-.37.19.37.2c.52.28.64.24.92-.26.13-.25.98-.97 1.89-1.6l1.7-1.17c.03-.02-.51-.61-1.22-1.31a11.3 11.3 0 0 1-2.93-4.91l-.47-1.39-.91.06c-3.5.22-9 3.21-12.11 6.58-2.4 2.6-2.99 3.32-2.75 3.4.27.1 3.42.8 3.74.83.12 0 .22.08.22.16 0 .36.5.1.6-.32zm-3.39-4.1a33.1 33.1 0 0 1 4.8-4.16c2.7-1.79 5.28-2.9 8.11-3.5a5.22 5.22 0 0 0 1.32-.38c.07-.08.05-.88-.03-1.79-.16-1.6 0-4 .36-5.58.08-.35.11-.67.07-.72-.13-.13-2.45.56-3.99 1.18-3 1.22-5.68 2.92-8.65 5.5-3.33 2.89-7.96 8.48-9.4 11.36l-.55 1.09h4.92z" fill="#edad16"/>
    <path d="M146.64 199.33a25.57 25.57 0 0 1-8.82-3.83c-7.26-5.02-12.53-15.19-14.2-27.44a13.8 13.8 0 0 0-.4-2.2c-.07-.08-.87.63-1.78 1.55a53.73 53.73 0 0 1-5.92 5.22c-.45.3-.82.63-.82.71 0 .09.55.52 1.23.96a11.63 11.63 0 0 1 5.33 8.63c.15 1.5 0 3.54-.34 4.6a7.8 7.8 0 0 1-3.93 4.67c-.87.4-1.2.46-2.73.45-1.41 0-1.97-.1-3.08-.47-.74-.26-1.38-.47-1.43-.47-.29 0 .13.55 1.65 2.15.96 1 1.74 1.9 1.74 2 0 .7-2.4.95-4.17.43-5.13-1.53-10.12-7.2-12.7-14.45l-.59-1.65-1.67-.05-1.67-.05v.45c0 .76 1.8 4.76 3.16 7.06l.4.66-.5.43c-.6.53-1 .53-2.14 0-2.96-1.38-5.45-3.96-7.24-7.5l-.8-1.59-.99-.28c-6.51-1.83-11.15-4.22-15.23-7.84a31.4 31.4 0 0 1-4.8-5.48l-.59-.93-1.22-.12c-3.37-.33-5.22-2.76-3.93-5.18l.43-.8-.77-.8a5.99 5.99 0 0 1-1.79-3.97c-.06-1.48.27-2.13 1.39-2.72.61-.33 1.02-.4 2.3-.4h1.54l.42-1.04c.46-1.14.5-.95-.5-2.45-1.06-1.61-1.28-2.42-1.28-4.75 0-2.1.01-2.2.56-3.32a7.58 7.58 0 0 1 5.65-4.34l1.2-.22.77-1.39c3.37-6.04 6.45-9.48 11.67-13.05a6.8 6.8 0 0 0 1.51-1.29c.11-.21.54-1.44.96-2.73 2.3-7.04 6.24-13 12.5-18.87 8.3-7.79 18.56-12.7 29.03-13.9 3.4-.38 9.17.02 10.53.74.69.36.48.8-.66 1.37-6.05 3.05-9.13 6-10.63 10.2-.92 2.56-1 6.52-.2 9.63.78 3 2.9 5.82 4.87 6.44.54.17 1.03.42 1.08.56.13.32-.57.89-2.17 1.78-1.8 1-2.87 2.03-3.55 3.4-.53 1.1-.57 1.26-.57 3.07a5.67 5.67 0 0 0 3.5 5.88 8.1 8.1 0 0 0 2.26.27c1.2 0 1.47.06 1.56.3.31.82-1.65 2.59-3.59 3.23-.52.18-1.67.36-2.56.42-.88.05-1.6.14-1.6.2a67.48 67.48 0 0 1 2.58 10.53c.43 2.59.57 3.1 1.04 3.83.6.93 1.11 1.25 2.02 1.25.85 0 1.63-.77 3.47-3.42a45.81 45.81 0 0 1 5.52-6.79c4.48-4.6 8.66-7.38 13.6-9.03 2.62-.88 4.6-1.2 7.22-1.2 3.4 0 5.74.58 7.58 1.9 1.05.75 1.32 1.24.96 1.68-.13.16-.86.69-1.62 1.18-2.63 1.71-4.69 3.44-7.9 6.65-4.28 4.28-7.15 8.08-9.34 12.34a30.09 30.09 0 0 0-2.94 15.56c.9 12.13 6.2 24.21 11.85 27.05 1.05.53 1.4.62 2.72.67 1 .04 1.54.13 1.6.27.15.4-.48 1.4-1.61 2.54a12.08 12.08 0 0 1-5.12 2.87c-1.22.33-5.9.48-7.31.23zm6.67-2.26c1.37-.35 3.85-1.42 3.84-1.67 0-.07-.55-.36-1.21-.62-1.99-.8-4.42-3-6-5.42-.2-.3-.54-.44-1.42-.59-.64-.11-1.94-.5-2.9-.88-4.07-1.6-7.36-4.22-10.5-8.4-.68-.9-1.29-1.64-1.36-1.64-.07 0-.54.97-1.04 2.16a28.06 28.06 0 0 1-1.16 2.51c-.27.39-.57.47-.57.15 0-.4-.6-1.53-.8-1.53-.25 0-.42-.4-.42-.98 0-.23-.07-.38-.16-.32-.28.17-1.14-1.94-1.8-4.42a72.77 72.77 0 0 1-1.76-8.75c-.32-2.4-.39-2.68-.65-2.68-.43 0 .41 6.23 1.36 10.04 1.1 4.41 3.48 10 5.5 12.89 2.9 4.15 6 6.85 10.05 8.79 3.8 1.81 7.46 2.26 11 1.36zm-44.92-4.31a43.3 43.3 0 0 1-2.19-3.68 83 83 0 0 0-2.04-3.7 67.96 67.96 0 0 1-2.06-3.8c-.52-1.05-1-1.98-1.09-2.06-.13-.14-1.85.08-2.84.36-.41.11-.33.65.4 2.67 1.27 3.47 4.33 7.77 7 9.84 1.06.81 3.55 2.27 3.88 2.27.12 0-.35-.86-1.06-1.9zm7.96-2.65a5.82 5.82 0 0 0 2.93-3.87l.11-.54-1.76-.11c-3.22-.22-5.57-.9-9.02-2.63a21.84 21.84 0 0 1-4.9-3.19c-.99-.9-1.22-1-1.64-.73-.28.18.58 2 2.12 4.47 2.29 3.68 5.3 6.3 8.03 6.98a7.2 7.2 0 0 0 4.13-.38zm32.31-2.65c0-.05-.44-.96-.97-2.03a56.03 56.03 0 0 1-2.82-6.91c-.35-1.06-.46-1.2-1.37-1.8a40.7 40.7 0 0 1-7.35-6.85c-.47-.64-1.39-1.18-1.49-.88-.03.1-.2.2-.36.2-.41 0-.71.34-.71.8 0 .23-.08.4-.17.4-.1 0-.26.34-.36.74-.11.4-.27.87-.34 1.02-.1.2.1.83.63 2l1.1 2.41c.46 1.03 2.7 3.95 4.19 5.43a22.27 22.27 0 0 0 7.91 5.15c1.07.38 2.11.54 2.11.32zm-56.14-1.8c-.2-.4-.55-.8-.78-.88-.58-.22-1.87-1.9-2.66-3.46-.55-1.08-.74-1.31-1.13-1.36-.25-.03-.46 0-.46.05 0 .3 1.1 2.22 1.8 3.12.7.92 3.4 3.42 3.54 3.3.03-.03-.1-.38-.31-.77zm26.82-1.2c.44-.28-.21-3.13-1.12-4.94l-.43-.84-1.33.15c-2.63.3-5.98.15-8.68-.36-2.55-.49-3.58-.49-3.77 0-.1.28.24.6 1.86 1.7a30.38 30.38 0 0 0 8.13 3.81c1.93.51 4.87.78 5.34.48zm-28.03-1.85a8.61 8.61 0 0 1-.36-1.53c0-.58-.23-.8-.92-.92-.53-.09-.63-.05-.63.2 0 .66 2.06 4.02 2.2 3.6.04-.1-.1-.72-.29-1.35zm5-4.6c3.67-.32 7.3-1.27 8.8-2.3.45-.31.84-.65.87-.75.04-.11-.46-.22-1.3-.27-2.13-.15-4.29-1.31-4.98-2.68a72.1 72.1 0 0 0-.38-.72c-.02-.04-.56.32-1.2.8-3.95 2.87-7.64 4.14-13.14 4.52l-1.9.13 1.12.36c.96.31 3.93.77 6.32.98 1.52.13 3.91.1 5.8-.06zm20.49-.29c.25-.25-1.26-1.5-2.59-2.14-1.81-.88-1.96-.87-4.57.37l-2.38 1.14c-.18.16.26.28 2.26.59 2.3.36 6.93.39 7.28.04zm-28.93-2.29c4.49-.77 8.31-2.6 11.3-5.43 1.02-.96 1.06-1.06.71-1.9-.2-.5.12-.35 1.44.71a11.84 11.84 0 0 0 4.91 2.45c1.72.41 2.96.44 4.44.09 1.6-.38 3.5-1.4 3.5-1.86 0-.1-.83-.12-2.2-.05-2.54.14-4.62-.13-6.58-.87-1.7-.64-1.7-.8-.02-.3 1.14.34 1.97.45 3.95.52 3.03.1 4.2-.12 6.5-1.24 2.22-1.08 6-4.3 5.56-4.73a7 7 0 0 0-1.88.6c-4.28 1.72-7 2.33-10.44 2.36-2.23.02-4.66-.29-4.86-.6-.06-.1.09-.12.39-.03.27.07 2.05.13 3.95.12 3.13 0 3.68-.05 5.64-.49 2.66-.59 3.6-.9 5.78-1.92 1.15-.54 1.66-.86 1.54-.98-.26-.26-2.47-.5-4.64-.52-1.83-.01-3.5.2-8.32 1.06-1.1.2-2.6.33-3.55.32-1.46-.01-1.55-.03-.78-.15a62.3 62.3 0 0 1 2.44-.3c.86-.1 2.44-.39 3.52-.65 1.71-.4 2.09-.56 3.01-1.27 1.1-.84 1.5-1.3 1.3-1.52-.21-.2-4.98.57-8.19 1.33-2.9.68-5.5 1.06-5.23.75a4.4 4.4 0 0 1 1.04-.42c1.04-.3 1.2-.55 1.64-2.46.23-.98.29-2.15.29-5.41 0-3.68-.05-4.38-.4-5.98-1.11-5.17-3.46-9.86-6.37-12.78-1.26-1.25-3.08-2.57-3.83-2.76-.66-.16-.46-.65.7-1.74 1.96-1.83 5.41-3.31 8.64-3.7 4.6-.56 8.6 1.08 12.94 5.28 1 .96 2.25 2.33 2.8 3.05 1.73 2.28 3.55 5.68 4 7.49.1.45.32.91.46 1.04.24.2.26.1.15-.9-.37-3.24-2.27-9.66-3.6-12.14a39.93 39.93 0 0 0-3.7-5.54 21.87 21.87 0 0 0-10.38-6.66c-3.03-.8-7.11-.8-11.08-.03a25.5 25.5 0 0 0-7.79 2.74 12.7 12.7 0 0 1-2.5 1.1c-.31-.31 1.37-4.73 2.92-7.7 3.17-6.03 7.82-11.39 14.63-16.87a64.3 64.3 0 0 1 8.72-5.66c5.9-3.02 12.64-4.84 18.04-4.89a6.8 6.8 0 0 0 1.65-.15c.73-.3-.28-.4-2.92-.3-7.78.3-16.27 3.2-23.47 7.98-7.53 5-13.85 11.95-17.2 18.86-1.02 2.13-2.76 6.98-2.76 7.72 0 .27-.25.57-.81.96-4.2 2.91-5.83 4.3-7.99 6.8a45.06 45.06 0 0 0-2.85 3.72c-1.51 2.3-3.7 6.7-4.7 9.53-1.5 4.23-3.76 11.57-3.65 11.85.11.3 3.74 2.97 4.7 3.47.31.16.57.32.57.37 0 .19-1.41-.52-3.3-1.65-3.18-1.9-4.57-2.5-5.83-2.51-1.59 0-2.18.7-1.8 2.15.2.73 1.6 2.74 2.02 2.9.47.18.44-.06-.18-1.2-.68-1.23-.75-1.6-.34-1.76 1-.38 2.18.08 5.53 2.13 1.42.87 3.18 1.81 3.9 2.1 2.94 1.13 5.34 1.1 7.66-.1.28-.15.54-.24.58-.2.04.03-.5.36-1.2.72-1.1.56-1.72.73-4.38 1.19-2.6.44-3.57.53-6.13.54-2.5.01-3.14-.03-3.68-.28-.36-.16-.65-.41-.65-.56 0-.39-.24-.33-.85.18-.94.79-.58 1.86.83 2.45 1.64.69 5.91.34 9.1-.74a13.2 13.2 0 0 1 1.79-.53c.19.19-3.02 1.23-5.63 1.83-.5.12-.95.28-1 .37-.28.44 2.83 4.24 5.2 6.37 3.03 2.71 7.49 5.08 10.14 5.4 2.18.25 5.1.18 7.14-.17zm-8.25-17.14a6.35 6.35 0 0 0-1.18-1.3c-.96-.85-.9-1.02.18-.47.8.4 1.36 1 1.5 1.6.17.65-.2.77-.5.17zm5.14-3.92a7.7 7.7 0 0 1-4.03-2.34c-3.19-3.2-3.48-7.89-.75-11.74 2.39-3.37 6.62-4.39 10.58-2.56a8.53 8.53 0 0 1 4.49 5.35c.3 1.14.3 3.75 0 4.9a9.32 9.32 0 0 1-4.67 5.69 7.8 7.8 0 0 1-5.62.7zm3.27-1.03a8.03 8.03 0 0 0 6.25-6.66 7.83 7.83 0 0 0-4.26-8.17 7.72 7.72 0 0 0-5.44-.37 8.4 8.4 0 0 0-5.01 4.63c-.44.93-.49 1.21-.49 2.93 0 1.85.03 1.95.65 3.26a7.73 7.73 0 0 0 5.33 4.4c1.27.27 1.62.27 2.97-.02zm-2.4-4.94a4.25 4.25 0 0 1-2.79-2.77 3.82 3.82 0 0 1 .95-3.94c2.19-2.2 5.89-.9 6.49 2.28.48 2.56-2.14 5.06-4.65 4.43zm.6-4.9c.47-.44.53-1.36.12-1.7-.72-.6-2.33.06-2.33.95 0 1.07 1.37 1.54 2.2.76zm-8.27-3.79c-.01-1.33 1.32-4.19 2.63-5.62 2.52-2.75 5.75-3.2 9.43-1.33.67.34 1.23.84 1.09.97-.04.03-.77-.17-1.63-.44-2.28-.73-4.18-.72-5.76.02-2.13 1-3.42 2.37-4.93 5.27-.6 1.15-.82 1.46-.83 1.13zm65.6 33.87a52.12 52.12 0 0 1-1.11-7.65c-.19-2.48-.1-2.34-2.37-4.02-1.86-1.38-3.03-2.08-3.47-2.08-.19 0-1.14-.36-2.12-.8-.98-.44-2.09-.84-2.45-.89-.66-.09-.68-.07-1.04.74-.4.9-.45 1.3-.19 1.3a6 6 0 0 1 1.2 1.03l1.04 1.03.11-.6c.07-.33.07-.72.02-.86-.08-.19.01-.26.32-.26a.7.7 0 0 0 .6-.35c.15-.26.37-.34.93-.34.4 0 .82.07.91.17.24.24.13 3.1-.19 4.6-.45 2.23-.36 2.62 1.13 4.5 1.7 2.13 6.74 6.74 7.05 6.43.04-.04-.13-.91-.36-1.95zm-11.01-12.37c0-.19.07-.34.17-.34s.17.15.17.34c0 .2-.08.35-.17.35-.1 0-.17-.16-.17-.35zm-23 12.01c.47-.23.82-.45.78-.49-.19-.19-1.95.25-2.16.54-.53.73-.13.71 1.39-.05zm-2.61-.05c.17-.22.29-.48.26-.58-.04-.1-.6-.28-1.26-.41a10.5 10.5 0 0 1-4.21-1.9l-.77-.64-.41.48c-.23.26-.41.57-.41.7 0 .32 1.4 1.56 2.24 2 1.82.92 3.95 1.09 4.56.35zm23.19-10.1c.23.05.36.03.29-.05-.08-.08.03-.23.23-.34.36-.2.36-.2-.1-.74-.25-.3-.57-.55-.7-.55-.12 0-.47.29-.76.64l-.53.65.39.3c.23.17.46.23.57.13.1-.08.38-.1.6-.04zm-6.1-.66c1.14-.7 1.17-.7 2.5-.62l1.33.08.63-.85a14.27 14.27 0 0 0 2.05-4.25c.51-2 .24-5.87-.53-7.37-.33-.66-.44-.7-1.23-.38l-.69.27-.1 2.54c-.16 3.7-.7 6.87-1.45 8.47-.2.43-.58.7-1.68 1.24a8.5 8.5 0 0 0-1.83 1.13c-.59.62-.36.56 1-.26zm18.51-2.34c.33-3 1.06-6.14 1.88-8.11.13-.32.08-.33-1.09-.22-2.56.24-11.12 2.67-11.5 3.27-.13.2-.04 1.24.12 1.54.03.05.5.2 1.05.32 1.46.33 3.2 1.02 3.7 1.47.24.21 1.22.9 2.17 1.53s2.05 1.38 2.43 1.67c.38.3.77.5.86.48.1-.03.27-.9.38-1.95zm-19.92.58c.1-.12.45-1 .8-1.97.88-2.5 1.2-5 1.13-8.75-.06-2.97-.07-3.06-.51-3.63a9.56 9.56 0 0 1-.74-1.16c-.16-.31-.36-.56-.44-.56-.08 0-.2.84-.25 1.86a55.62 55.62 0 0 1-2.12 11.59 21.4 21.4 0 0 0-.6 2.2c0 .17.32.3 1 .42 1.41.24 1.54.24 1.73 0zm-4.35-.23c.56-.08.74-.34 1.1-1.6.2-.75.01-.82-1.6-.58-1.23.17-1.27.2-2.15 1.18-.5.54-.87 1.05-.82 1.13.08.13 2.32.04 3.47-.13zm7.25-1.24c.93.11 2.13-6.12 1.75-9.12-.12-.95-.14-.98-.91-1.32-.43-.2-.8-.35-.83-.35-.02 0-.08 1.34-.14 2.99a41.94 41.94 0 0 1-.35 4.46l-.44 2.6c-.1.62-.23 1.32-.3 1.56-.1.36-.04.33.38-.21.32-.4.63-.63.84-.6zm-18.1-.84a16.9 16.9 0 0 0 2.12-.59c.26-.22.98-3.23 1.2-5.03.15-1.2.23-3.89.22-7.88 0-5.43-.04-6.33-.4-8.56-.45-2.93-1.42-6.83-2-8.1-.37-.8-.5-.94-1.17-1.13-1.17-.34-4.84-.28-6.3.1-2.36.63-6.16 2.54-6.14 3.1 0 .12.38.46.84.77a22.2 22.2 0 0 1 4.7 4.93 24.55 24.55 0 0 1 3.12 6.35c1.59 4.78 1.98 8.96 1.44 15.43-.1 1.05-.07 1.26.13 1.18.14-.05 1.14-.3 2.24-.57zm6.3-.61c1.08-.17 1.4-.29 1.6-.6.96-1.46 2.15-9.85 2.14-15.07 0-3.16-.43-8.26-.74-8.86-.32-.63-2.53-2.74-3.94-3.78-1.15-.85-2.89-1.76-3.05-1.6-.06.06.14.95.43 1.98 1.27 4.4 1.78 8.18 1.89 14a51.8 51.8 0 0 1-.29 8 92.7 92.7 0 0 1-.53 4.4 9.1 9.1 0 0 0-.17 1.41c0 .58-.3.57 2.65.12zm5.43-.26c.63-.1.69-.22 1.51-3.59a30.53 30.53 0 0 0 1.04-8.7l.02-3.46-.84-1.74c-.8-1.69-2.35-4.23-2.56-4.24-.06 0-.07 1.94-.02 4.32.1 4.63-.11 8.28-.67 11.97a75.6 75.6 0 0 1-.96 5.42c-.08.27 0 .3.92.2.55-.05 1.26-.13 1.56-.18zm15.7-4.66a53 53 0 0 1 8.44-2.08c1.73-.2 1.64-.13 2.7-2.1 1-1.86 2.98-4.97 3.93-6.18.28-.37.47-.71.4-.77-.29-.3-5.87 1.73-8.07 2.94-2.36 1.3-4.07 2.53-8.55 6.2-1.91 1.56-2.01 1.67-2.02 2.3 0 .35.06.64.14.64.08 0 1.44-.43 3.03-.95zm-1.5-2.9 3.38-2.72c.99-.8 2.3-1.79 2.92-2.19 2.48-1.6 6.68-3.4 10.14-4.32l1.73-.47 3.07-3.14c1.69-1.73 3.07-3.17 3.08-3.2.03-.26-2.67.38-5.41 1.28a47.23 47.23 0 0 0-8.54 4.18 56.26 56.26 0 0 0-7.19 5.84c-2.22 2.08-4.46 3.74-5.03 3.74-.18 0-.36.06-.4.14-.1.16.42 2.11.56 2.11.06 0 .82-.56 1.7-1.25zm-.55-2.63a34.5 34.5 0 0 0 2.79-2.4c5.73-5.44 9.82-8.22 15.16-10.28 1.98-.76 5.5-1.64 7.08-1.76 1.24-.1 1.32-.13 2.68-1.17a37.5 37.5 0 0 1 2.15-1.54c.4-.25.73-.53.73-.62 0-.29-2.75-1.05-4.4-1.22-4.17-.43-9.6 1.14-14.23 4.11a42.89 42.89 0 0 0-10.61 10.22c-1.83 2.44-2.99 4.21-2.75 4.21.03 0 .77-.92 1.63-2.04 2.58-3.35 3.4-3.87 1.15-.73-1.68 2.35-2.42 3.18-2.74 3.06-.31-.12-1.05.65-.88.93.21.34 1.1.04 2.24-.77zm-68.81-.38c.19-.48.11-.88-.33-1.83a4.6 4.6 0 0 1 2.27-6.23c.67-.3 1.11-.88 1.11-1.46 0-.43-.94-.3-2.1.31-2.96 1.53-3.84 5.5-1.94 8.75.45.77.8.93.99.46zm2.18-6.3c.4-.98-.23-1.55-.96-.87-.45.43-.56 1.12-.2 1.27.57.23.96.1 1.16-.4zm58.88-11.76c.15-.1-.02-.25-.52-.46a8.05 8.05 0 0 1-2.76-2.49 10.6 10.6 0 0 1-.76-1.66c-.43-1.16-.48-1.18-1.72-.67-.92.38-.89.34-.5.79.2.21.74.93 1.2 1.6 1.5 2.2 1.99 2.57 3.58 2.84 1.24.2 1.24.2 1.48.05zm-6.7-6.65c.52-.2 1.02-.46 1.11-.56.1-.1.3-.19.43-.19.18 0 .31-.26.4-.78.09-.43.26-1.26.4-1.85.13-.6.25-1.16.25-1.25 0-.25-1.65-.71-2.52-.71-.4 0-1.18.16-1.73.35-1.27.43-3.58 1.58-3.51 1.74.02.07.67.62 1.44 1.23.77.6 1.66 1.4 1.97 1.75.31.36.63.65.7.65.07 0 .55-.17 1.07-.38zm-32.23-2.77c.6-.34.84-.7 2.05-3.12a69.8 69.8 0 0 1 9.17-13.52c1.65-1.91 3.3-3.51 3.46-3.35.12.12-.36.77-2.31 3.12A99.93 99.93 0 0 0 89.68 115c-.88 1.5-1.74 3.25-1.6 3.25.02 0 .74-.3 1.59-.67a28.35 28.35 0 0 1 5.82-1.77l1.16-.2 1.47-2.36c5.94-9.59 13.64-16.05 21.59-18.1 1.79-.47 1.8-.48 2.72-2.22a17.97 17.97 0 0 1 5.1-5.75c.41-.3.39-.3-1.2-.2-2.18.14-5.93.93-8.47 1.78-6.63 2.21-11.72 5.17-17.64 10.25-7.08 6.06-11.56 11.91-14.2 18.53-1.01 2.57-1.02 2.52.1 1.89zm23.63-3.2c.2-.54-1.01-.84 1.65-.96.67-.03 1.22 0 1.22.06 0 .13 1.13.04 1.38-.11.1-.06.68.02 1.3.17.87.22 1.74.28 3.64.23 1.92-.05 2.41-.01 2.13.14l-.37.19.37.2c.52.28.64.24.92-.26.13-.25.98-.97 1.89-1.6l1.7-1.17c.03-.02-.51-.61-1.22-1.31a11.3 11.3 0 0 1-2.93-4.91l-.47-1.39-.91.06c-3.5.22-9 3.21-12.11 6.58-2.4 2.6-2.99 3.32-2.75 3.4.27.1 3.42.8 3.74.83.12 0 .22.08.22.16 0 .36.5.1.6-.32zm-3.39-4.1a33.1 33.1 0 0 1 4.8-4.16c2.7-1.79 5.28-2.9 8.11-3.5a5.22 5.22 0 0 0 1.32-.38c.07-.08.05-.88-.03-1.79-.16-1.6 0-4 .36-5.58.08-.35.11-.67.07-.72-.13-.13-2.45.56-3.99 1.18-3 1.22-5.68 2.92-8.65 5.5-3.33 2.89-7.96 8.48-9.4 11.36l-.55 1.09h4.92z" fill="#30728f"/>
    <path d="M146.5 199.08c-3.57-.65-7.8-2.82-10.83-5.53-6.39-5.73-10.59-15.12-12.06-26.93-.06-.52-.21-.96-.34-1.01-.13-.05-.77.48-1.5 1.25a59 59 0 0 1-6.47 5.7c-.53.35-.94.73-.9.84.04.11.53.47 1.1.8.55.33 1.61 1.2 2.34 1.93a10.97 10.97 0 0 1 3.26 8.22c0 2.73-.7 4.75-2.22 6.3-1.57 1.6-3.67 2.19-6.15 1.7-.79-.16-1.84-.45-2.34-.66-1.62-.67-1.4-.07.87 2.35.84.9 1.53 1.7 1.53 1.81 0 .58-2.08.73-3.65.26-5.26-1.56-10.05-6.97-12.65-14.27l-.64-1.82h-1.8c-1.76 0-1.8 0-1.85.4-.1.72 1.54 4.62 2.91 6.9l.54.9-.37.38c-.48.48-1.25.36-2.68-.44a15.77 15.77 0 0 1-6.26-6.78l-.98-1.93-2.14-.62c-4.88-1.44-9.4-3.65-12.54-6.15-2.13-1.7-5.2-5-6.32-6.79-.61-.97-.61-.97-1.87-1.12-2.14-.24-3.45-1.01-4.02-2.38-.38-.9-.33-1.5.18-2.53l.46-.91-.81-.87a9.23 9.23 0 0 1-1.34-2 3.54 3.54 0 0 1-.46-2.24c.06-.94.15-1.2.58-1.64.7-.73 1.92-1.06 3.37-.93l1.15.1.47-1.03c.58-1.3.58-1.5-.03-2.27a8.13 8.13 0 0 1-1.73-5.65c.06-1.38.15-1.75.7-2.92a6.81 6.81 0 0 1 5.46-4.12l1.26-.2.81-1.5c3.28-6.03 6.3-9.35 12.25-13.5.92-.63 1.04-.85 2.02-3.94 2.52-7.92 8.31-15.68 16.34-21.88 8.46-6.55 18.13-10.25 27.59-10.56 4.09-.13 8.25.5 8.02 1.2-.04.13-.92.68-1.96 1.24-5.2 2.8-8.03 5.53-9.5 9.17-1.63 4.09-1.13 10.34 1.11 13.83.77 1.2 2.42 2.67 3.4 3.03.46.17.9.36.98.43.2.17-.71.88-2.16 1.68a9.55 9.55 0 0 0-3.66 3.63c-.32.71-.38 1.14-.38 2.91 0 2 .01 2.13.56 3.23 1.02 2.1 2.37 2.94 4.98 3.09 2.07.11 2.2.29 1.14 1.45-1.23 1.33-3.6 2.2-6.02 2.2-1.34 0-1.33-.05-.5 2.4a57.17 57.17 0 0 1 2 8.77c.41 2.7.63 3.3 1.56 4.28.58.6.72.66 1.53.66.83 0 .96-.06 1.63-.74.4-.4 1.42-1.72 2.25-2.93a43.54 43.54 0 0 1 5.94-7.17c5.22-5.24 10.69-8.3 16.7-9.35 2.05-.36 5.12-.32 7.07.08 2.46.5 5.1 2.06 4.81 2.83-.05.15-.83.75-1.73 1.33a47.44 47.44 0 0 0-7.88 6.58c-6.6 6.64-10.48 13.02-11.77 19.38a32.63 32.63 0 0 0-.55 8.77c.94 12.23 6.27 24.27 12.01 27.14a4.5 4.5 0 0 0 2.76.7c1.63 0 1.7.15.78 1.46-1.4 1.97-3.78 3.35-6.9 4-1.46.31-4.79.31-6.46 0zm6.93-1.72c1.34-.36 4.3-1.78 4.21-2.02a4.1 4.1 0 0 0-1.28-.66c-2.14-.84-4.02-2.42-5.74-4.83-.52-.73-.93-1.12-1.24-1.18a22.25 22.25 0 0 1-8.59-3.74c-4.94-3.75-8.68-9.46-11.46-17.5-.96-2.77-1.54-3.88-2.16-4.14a2.02 2.02 0 0 0-1.93.3c-.43.37-.4 1.08.1 4.57.89 5.97 2.23 10.42 4.54 15.06a27.92 27.92 0 0 0 6.07 8.33c3.31 3.22 6.49 4.98 10.63 5.9 1.79.4 5.2.35 6.85-.1zm-43.37-2.59-1.37-2.03c-.68-1-1.72-2.76-2.32-3.9a99 99 0 0 0-1.9-3.45 55.55 55.55 0 0 1-2.77-5.4c0-.08.45.64 1 1.59a36.96 36.96 0 0 0 3.54 5.19 17.5 17.5 0 0 0 4.34 3.36c1.98.95 4.35 1.06 5.87.28 1.56-.82 2.94-2.76 2.99-4.23l.02-.8-1.9-.1c-3.03-.18-5.74-.97-9.05-2.64a25.65 25.65 0 0 1-4.9-3.3c-.65-.68-1.51-.85-1.91-.36a.73.73 0 0 1-.59.22c-.61-.08-3.2.41-3.39.63-.37.45.75 3.59 2.17 6.08 2.27 3.99 5.34 7.02 8.77 8.66 1.2.57 1.68.64 1.4.2zm38.95-7.02c0-.08-.54-1.27-1.2-2.64a59 59 0 0 1-2-4.75l-.98-2.7a5.2 5.2 0 0 0-1.42-1.32c-4.13-2.89-7.76-7.01-10.78-12.28-1.21-2.12-2.04-3.02-2.76-3.02-.47 0-.68.14-1.2.8l-.62.8.32.63a46 46 0 0 1 1.23 3.14c2.13 5.91 3.99 9.72 6.19 12.67a27 27 0 0 0 5.62 5.65 27.18 27.18 0 0 0 5.5 2.84c1.04.33 2.1.42 2.1.18zm-55.49-.85-.88-1.79c-.46-.93-1-2.34-1.2-3.2a9.98 9.98 0 0 0-.52-1.74c-.08-.1-.7-.24-1.4-.3l-1.68-.16c-.39-.04-.43.02-.41.49.02.58 1.06 2.4 2.09 3.66.88 1.09 3.35 3.17 3.75 3.17.17 0 .29-.05.25-.13zm26.09-3.33a11.3 11.3 0 0 0-1.33-4.52c-.35-.53-.48-.59-1.08-.55-4.75.28-6.21.24-9.15-.28-2.72-.48-2.96-.5-3.67-.26-.4.14-.79.37-.84.5-.12.3 2.05 1.96 4.16 3.17a27.7 27.7 0 0 0 8.12 3.04c.2.04 1.13.06 2.08.05l1.74-.03zm-2.88-5.56c.22-.08.4-.26.4-.38 0-.61-2.48-2.33-4.1-2.84l-.89-.28-2.7 1.27c-1.5.7-2.71 1.33-2.71 1.41 0 .08.17.21.39.3a55 55 0 0 0 4.98.77c.89.1 4.17-.08 4.63-.25zm-20.41 0c3.66-.32 7.3-1.27 8.8-2.3.44-.31.83-.65.86-.75.04-.11-.46-.22-1.3-.27-2.13-.15-4.29-1.31-4.98-2.68l-.38-.72c-.02-.04-.56.32-1.2.8-3.95 2.87-7.64 4.14-13.14 4.52l-1.9.13 1.12.36c.96.31 3.93.77 6.32.98 1.52.13 3.91.1 5.8-.06zm47.9-2.2c.05-.09-.1-.96-.33-1.96a60.29 60.29 0 0 1-1.22-8.35l-.12-1.87-.94-.86a25.34 25.34 0 0 0-6.2-3.9c-2.05-.87-3.78-1.38-4.17-1.23-.24.09-.48.57-.94 1.86l-.23.61 1.04 1.03c.72.71 1.68 2.06 3.13 4.4 2.27 3.66 3.75 5.48 6.38 7.84 1.45 1.3 3.12 2.56 3.4 2.56.06 0 .16-.06.2-.14zm-56.35-.38c4.49-.77 8.31-2.6 11.3-5.43 1.02-.96 1.06-1.06.71-1.9-.2-.5.12-.35 1.44.71a11.84 11.84 0 0 0 4.91 2.45c1.72.41 2.96.44 4.44.09 1.6-.38 3.5-1.4 3.5-1.86 0-.1-.83-.12-2.2-.05-2.54.14-4.62-.13-6.58-.87-1.7-.64-1.7-.8-.02-.3 1.14.34 1.97.45 3.95.52 3.03.1 4.2-.12 6.5-1.24 2.22-1.08 6-4.3 5.56-4.73a7 7 0 0 0-1.88.6c-4.28 1.72-7 2.33-10.44 2.36-2.29.02-4.67-.29-4.88-.63-.07-.12 0-.14.22-.06.6.24 5.5.33 7.04.14a35.2 35.2 0 0 0 6.55-1.5c2.29-.97 3.73-1.65 3.78-1.8.23-.72-5.27-.85-9.07-.22-1.24.2-3.1.52-4.16.71-1.7.3-5.3.5-5.07.26.05-.05.98-.17 2.06-.26 2.3-.2 5.64-.9 6.7-1.4.95-.46 2.77-2.17 2.55-2.4-.35-.34-9.8 1.42-11.56 2.15-.65.27-2.38.38-2.15.14.07-.07.54-.25 1.03-.4 1.04-.3 1.2-.55 1.64-2.46.23-.98.29-2.15.29-5.41 0-3.68-.05-4.38-.4-5.98-1.11-5.17-3.46-9.86-6.37-12.78-1.26-1.25-3.08-2.57-3.83-2.76-.66-.16-.46-.65.7-1.74 1.96-1.83 5.41-3.31 8.64-3.7 4.6-.56 8.6 1.08 12.94 5.28a25.36 25.36 0 0 1 6.7 10.24c.55 1.65.9 2.02.81.86a63.48 63.48 0 0 0-1.93-8.74 24.14 24.14 0 0 0-3.37-6.84c-3.55-5.38-8.55-8.8-14.24-9.73a30.48 30.48 0 0 0-8.91.25c-2.59.6-5.63 1.7-8.04 2.9a12.3 12.3 0 0 1-2.47 1.06c-.18-.18 1.1-3.69 2.2-5.98a43.06 43.06 0 0 1 8.4-11.97c7.82-8.04 15.65-13 24.26-15.36a33.6 33.6 0 0 1 7.97-1.31c3.03-.2 3.92-.33 4.02-.62.1-.29-.82-.4-3.08-.4-5.13 0-11.54 1.5-17.34 4.07-8.35 3.69-16.63 10.7-21.9 18.54a39.33 39.33 0 0 0-5.02 11.03c-.24.86-.45 1.6-.48 1.61l-1.17.79a35.7 35.7 0 0 0-10.28 10.13 55.18 55.18 0 0 0-4.6 9.36c-1.6 4.42-3.87 11.72-3.76 12.14a.8.8 0 0 0 .47.52 18 18 0 0 1 2.12 1.37 28.4 28.4 0 0 0 2.88 1.91c0 .3-2.61-1.12-4.09-2.2-1.48-1.1-3.6-2.06-4.76-2.17-.85-.08-1.02-.03-1.5.37-1.01.85-.9 1.99.39 3.74.73 1 1.19 1.38 1.4 1.17a4.4 4.4 0 0 0-.53-1.2c-.68-1.24-.75-1.61-.34-1.77 1-.38 2.18.08 5.53 2.13 1.42.87 3.18 1.81 3.9 2.1 2.94 1.13 5.34 1.1 7.66-.1.28-.15.54-.24.58-.2.04.03-.5.36-1.2.72-1.1.56-1.72.73-4.38 1.19-2.6.44-3.57.53-6.13.54-2.5.01-3.14-.03-3.68-.28-.36-.16-.65-.41-.65-.56 0-.39-.24-.33-.85.18-.94.79-.58 1.86.83 2.45 1.64.69 5.91.34 9.1-.74a13.2 13.2 0 0 1 1.79-.53c.19.19-3.02 1.23-5.63 1.83-.5.12-.95.28-1 .37-.28.44 2.83 4.24 5.2 6.37 3.03 2.71 7.49 5.08 10.14 5.4 2.18.25 5.1.18 7.14-.17zm-8.25-17.14a6.35 6.35 0 0 0-1.18-1.3c-.96-.85-.9-1.02.18-.47.8.4 1.36 1 1.5 1.6.17.65-.2.77-.5.17zm5.14-3.92a7.7 7.7 0 0 1-4.03-2.34c-3.19-3.2-3.48-7.89-.75-11.74 2.39-3.37 6.62-4.39 10.58-2.56a8.53 8.53 0 0 1 4.49 5.35c.3 1.14.3 3.75 0 4.9a9.32 9.32 0 0 1-4.67 5.69 7.8 7.8 0 0 1-5.62.7zm3.17-.8a8.45 8.45 0 0 0 5.7-4.28 7.95 7.95 0 0 0-3.52-10.91c-1.28-.63-1.34-.65-3.3-.65-1.9 0-2.07.03-3.2.57a9.86 9.86 0 0 0-4.1 4.09 5.55 5.55 0 0 0-.64 2.76 7.27 7.27 0 0 0 2.23 6.1 7.14 7.14 0 0 0 6.83 2.32zm-2.09-5.34a3.84 3.84 0 0 1-2.96-3.35 3.68 3.68 0 0 1 3.57-4.11c2.8 0 4.64 3.37 3.13 5.75-.8 1.27-2.44 2.02-3.74 1.7zm.45-4.44c.38-.24.65-1.16.48-1.65-.34-.96-1.88-1.09-2.57-.21-1.08 1.36.55 2.81 2.09 1.86zm-8.32-4.08c-.04-1.3 1.3-4.18 2.62-5.62a7.23 7.23 0 0 1 3.64-2.28 4.74 4.74 0 0 1 2.42-.11c1.42.2 2.95.74 3.8 1.32.93.63.8.85-.25.37-2.87-1.31-5.53-1.14-7.9.51a12.26 12.26 0 0 0-4.08 5.6c-.2.57-.24.6-.25.21zm31.59 33.51c.46-.23.8-.45.77-.49-.19-.19-1.95.25-2.16.54-.53.73-.13.71 1.39-.05zm-2.62-.05c.17-.22.29-.48.26-.58-.04-.1-.6-.28-1.26-.41a10.5 10.5 0 0 1-4.21-1.9l-.77-.64-.41.48c-.23.26-.41.57-.41.7 0 .32 1.4 1.56 2.24 2 1.82.92 3.95 1.09 4.56.35zm17.08-10.76c1.15-.7 1.18-.7 2.5-.62l1.34.08.63-.85a14.27 14.27 0 0 0 2.05-4.25c.51-2 .24-5.87-.53-7.37-.33-.66-.44-.7-1.23-.38l-.69.27-.1 2.54c-.16 3.7-.7 6.87-1.45 8.47-.2.43-.58.7-1.68 1.24a8.5 8.5 0 0 0-1.83 1.13c-.59.62-.36.56 1-.26zm18.74-1.93c.3-2.84.81-5.28 1.48-7.2.35-1 .52-1.75.43-1.84-.5-.51-10.11 1.82-12.52 3.04l-.66.34.05 1.06.05 1.06 1.39.37c2.31.61 4.73 1.9 7.62 4.07a7.45 7.45 0 0 0 1.67 1.04c.23 0 .32-.34.5-1.94zm-17.93.5c.62-.26 1.1-.57 1.22-.83a22 22 0 0 0 1.22-5c.26-1.93.33-5.85.12-6.17-.07-.11-.32-.26-.56-.33a3.83 3.83 0 0 1-.89-.45c-.25-.18-.5-.27-.56-.21-.06.06-.11.74-.12 1.51 0 3.24-.72 8.4-1.46 10.5-.3.82-.34 1.39-.12 1.39.08 0 .6-.19 1.15-.41zm-2.2-.33c.09-.12.44-1 .78-1.97.89-2.5 1.2-5 1.14-8.75-.06-2.97-.07-3.06-.51-3.63a9.56 9.56 0 0 1-.74-1.16c-.16-.31-.36-.56-.44-.56-.08 0-.2.84-.25 1.86a55.62 55.62 0 0 1-2.12 11.59 21.4 21.4 0 0 0-.6 2.2c0 .17.32.3 1 .42 1.41.24 1.54.24 1.73 0zm-4.35-.23c.44-.07.6-.21.83-.8.16-.4.3-.95.3-1.23.01-.28.12-.54.24-.59.29-.1.63-1.15 1.27-3.87.87-3.73.96-4.54.97-8.57v-3.82l-.74-1.63c-1-2.22-2.96-5.13-3.24-4.84-.04.04 0 1.59.1 3.44a71.32 71.32 0 0 1-1.23 16.83 17.1 17.1 0 0 0-.42 2.61c.05.08.5.15.99.16l.9.02-.87.15c-.76.12-.97.26-1.76 1.13-.5.55-.87 1.06-.82 1.14.08.13 2.32.04 3.48-.13zm-12.25-1.33c.53-.15 1.56-.4 2.3-.57.99-.21 1.42-.4 1.6-.66.32-.5.88-3.35 1.16-5.92.35-3.24.3-11.4-.09-14.38-.6-4.62-1.83-9.45-2.62-10.23-.6-.6-2.08-.83-4.6-.74-1.84.07-2.41.17-3.81.64-2.43.82-5.38 2.47-5.38 3.02 0 .12.48.56 1.06.98 2.32 1.69 4.9 4.86 6.45 7.92 1.19 2.34 2.34 6.53 2.73 9.93.23 2.03.13 7.01-.18 8.82-.2 1.18-.14 1.67.21 1.54.12-.05.65-.2 1.17-.35zm7.68-1.36c1.1-.17 1.41-.29 1.62-.6.95-1.46 2.14-9.85 2.13-15.07 0-3.16-.43-8.26-.74-8.86-.32-.63-2.53-2.74-3.94-3.78-1.15-.85-2.89-1.76-3.05-1.6-.06.06.14.95.43 1.98 1.27 4.4 1.78 8.18 1.89 14a51.8 51.8 0 0 1-.29 8 92.7 92.7 0 0 1-.53 4.4 9.1 9.1 0 0 0-.17 1.41c0 .58-.3.56 2.65.12zm20.63-4.47a49.96 49.96 0 0 1 8.52-2.18l2.25-.38.9-1.61c1.4-2.5 2.51-4.29 3.76-5.98.63-.85 1.14-1.63 1.14-1.71 0-.49-4.64.98-7.6 2.4a35.23 35.23 0 0 0-6.97 4.53l-3.36 2.74c-1.65 1.35-1.68 1.38-1.58 1.99.06.34.1.71.1.83 0 .33.2.29 2.84-.63zm-1.29-2.74a50.2 50.2 0 0 0 2.44-1.97 35.28 35.28 0 0 1 14.34-7.62l1.83-.5 3.27-3.35c1.8-1.83 3.26-3.4 3.26-3.46 0-.38-2.87.23-6.01 1.28-2.43.8-6.28 2.67-8.56 4.16a62.36 62.36 0 0 0-7.28 5.88c-2.75 2.5-3.4 3-4.64 3.56-.92.42-.93.43-.82 1.07.18 1.12.46 1.94.66 1.94.1 0 .79-.44 1.51-.99zm-.38-2.8a25.5 25.5 0 0 0 2.75-2.32c4.88-4.67 8.44-7.3 12.46-9.24a32.16 32.16 0 0 1 10.18-3.1c1.08-.11 1.26-.2 2.6-1.2.8-.58 1.81-1.3 2.26-1.58.45-.29.82-.62.82-.74 0-.26-1-.7-2.6-1.17-1.75-.5-5.23-.45-7.73.13-4.8 1.12-9.21 3.57-13.76 7.64a55.82 55.82 0 0 0-7.92 9.5c-.48.74-1.04 1.55-1.24 1.8-.28.37-.33.53-.18.71.36.44 1.27.27 2.36-.43zm-68.5-.94c.13-.52.08-.8-.3-1.65-.72-1.6-.57-3.74.34-4.74.32-.36.32-.36.4.14a1 1 0 0 0 .6.73c.48.23.53.22.9-.22.48-.55.53-1.18.12-1.58-.28-.28-.27-.32.2-.65.5-.38 1.04-1.41.87-1.7-.2-.3-1.4-.16-2.3.29a6.39 6.39 0 0 0-2.82 3.16c-.3.81-.36 1.25-.3 2.54a6.2 6.2 0 0 0 1.28 3.86c.54.7.8.66 1-.18zm61.69-17.6c.8-.18.71-.49-.21-.8-2.17-.71-3.72-2.4-4.46-4.86-.2-.63-.26-.69-.8-.67-.74.02-2.4.73-2.4 1.02 0 .2 1.3 2.05 2.7 3.85.94 1.22 3.26 1.87 5.17 1.46zm-5.51-7.14c.3-.11.38-.33.48-1.4.06-.7.22-1.7.36-2.22.14-.51.2-1 .16-1.08-.18-.29-1.04-.63-2.1-.84-.96-.19-1.19-.17-2.33.17-1.72.52-4.3 1.86-4.3 2.23 0 .16.37.56.8.9a39.2 39.2 0 0 1 2.32 2.01l1.52 1.43 1.36-.53 1.73-.67zm-33.99-2.46 1.03-.68c.1-.07.97-.47 1.93-.9 1.92-.86 4.35-1.6 6.22-1.92 1.2-.2 1.23-.22 1.74-1.03 3.15-5 5.1-7.62 7.72-10.4 4.18-4.4 9.45-7.74 14.54-9.2 1.19-.34 2.17-.64 2.18-.66l.8-1.49c1.32-2.51 2.77-4.1 5.62-6.2.28-.2.45-.42.38-.5-.2-.2-4.12.23-6.42.72-7.52 1.58-15.07 5.47-21.73 11.18-7.35 6.3-11.9 12.18-14.52 18.77a26.8 26.8 0 0 0-.96 2.64c0 .4.59.26 1.47-.33zm4.17-6.89c.58-1.05 2.06-3.3 3.07-4.63 1.23-1.65 1.84-2.26.78-.78a153 153 0 0 0-2.12 3.07c-1.4 2.07-2.1 3.02-1.73 2.34zm4.41-6.48c0-.03.14-.17.3-.3.28-.21.29-.2.07.07-.23.28-.37.38-.37.23zm1.02-1.29c.2-.27.49-.6.66-.74.16-.13.04.1-.29.5-.66.83-.9.99-.37.24zm1.15-1.41c.17-.2.35-.35.4-.35.05 0-.06.16-.23.35-.17.19-.35.34-.4.34-.05 0 .05-.15.23-.34zm16.23 14.1c1.62-.94 3.93-1.8 4.86-1.8.36 0 1.28.23 2.06.52l1.41.51 1.08-1.16c.6-.65 1.56-1.44 2.14-1.78.58-.33 1.1-.7 1.14-.81.05-.11-.18-.37-.5-.57-1.47-.91-2.92-3.04-3.82-5.62l-.55-1.57-1.23.03c-2.2.06-5.39 1.35-8.44 3.4-1.67 1.12-7.02 6.29-7.02 6.77 0 .17.28.34.74.45 2.46.62 3.05.82 4.59 1.57.93.46 1.8.84 1.92.85.12 0 .85-.35 1.62-.8zm-8.61-3.35a38.6 38.6 0 0 1 6.61-6.12 21.41 21.41 0 0 1 8.03-3.41l1.48-.3-.06-2.59c-.04-1.8.03-3.02.22-4.05.35-1.91.34-2.08-.06-2.08-.74 0-3.52.94-5.35 1.82-5.22 2.5-9.85 6.56-14.43 12.66-1.5 2-3.28 4.82-3.28 5.2 0 .16.71.22 2.86.21h2.86z" fill="#1c2122"/>
  </g>
</svg>